<svg width="1641" height="1045" viewBox="0 0 1641 1045" fill="none" xmlns="http://www.w3.org/2000/svg">
<path d="M521 1043C808.74 1043 1042 809.74 1042 522C1042 234.26 808.74 1 521 1C233.26 1 0 234.26 0 522C0 809.74 233.26 1043 521 1043Z" fill="#E8DD79"/>
<path fill-rule="evenodd" clip-rule="evenodd" d="M503 0H1070C1382.81 0 1637 233.608 1637 522.5C1637 811.392 1382.81 1045 1070 1045H503V0ZM511.177 8.16917V1036.83H1070C1378.93 1036.83 1628.82 806.266 1628.82 522.5C1628.82 238.734 1378.93 8.16917 1070 8.16917H511.177Z" fill="#9D76E5"/>
<path d="M1120 1043C1407.74 1043 1641 809.74 1641 522C1641 234.26 1407.74 1 1120 1C832.26 1 599 234.26 599 522C599 809.74 832.26 1043 1120 1043Z" fill="#F96E99"/>
</svg>
