<svg width="1920" height="376" viewBox="0 0 1920 376" fill="none" xmlns="http://www.w3.org/2000/svg">
<path d="M1494 0H0V376H1494V0Z" fill="#E8DD79"/>
<path d="M1920 0H1494V376H1920V0Z" fill="#E8DD79"/>
<path d="M1494 376H1116C1117.94 168.601 1286.21 0.992875 1494 0V376Z" fill="#FF9880"/>
<path d="M1298 376C1298 268.27 1385.77 181 1494 181V376H1298Z" fill="#28BE7F"/>
<path d="M1404 90.5029C1404 40.5185 1444.29 0 1494 0V181C1444.29 181 1404 140.481 1404 90.4971V90.5029Z" fill="#9D76E5"/>
<path d="M1661 188C1661 291.835 1586.24 376 1494 376V0C1586.24 0 1661 84.1652 1661 188Z" fill="#F96E99"/>
</svg>
