<svg width="150" height="33" viewBox="0 0 150 33" fill="none" xmlns="http://www.w3.org/2000/svg">
<g clip-path="url(#clip0_615_4023)">
<path d="M102.37 0.31V0.62H149.38V31.88H102.68V0.31H102.37V0.62V0.31H102.06V32.5H150V0H102.06V0.31H102.37Z" fill="#3D3D3B"/>
<path d="M0.759766 18.9202V12.1602H5.64977V12.9602H1.65977V15.0302H5.39977V15.8202H1.65977V18.1202H5.80977V18.9202H0.759766Z" fill="#3D3D3B"/>
<path d="M6.92992 18.9204V14.0204H7.67992V14.7604C7.86992 14.4104 8.04992 14.1804 8.20992 14.0704C8.36992 13.9604 8.54992 13.9004 8.73992 13.9004C9.01992 13.9004 9.29992 13.9904 9.58992 14.1704L9.29992 14.9404C9.09992 14.8204 8.88992 14.7604 8.68992 14.7604C8.50992 14.7604 8.34992 14.8104 8.19992 14.9204C8.05992 15.0304 7.94992 15.1804 7.88992 15.3704C7.79992 15.6704 7.74992 15.9904 7.74992 16.3404V18.9104H6.91992L6.92992 18.9204Z" fill="#3D3D3B"/>
<path d="M13.2798 18.3199C12.9698 18.5799 12.6798 18.7699 12.3898 18.8699C12.1098 18.9799 11.7998 19.0299 11.4698 19.0299C10.9298 19.0299 10.5198 18.8999 10.2298 18.6399C9.93981 18.3799 9.7998 18.0399 9.7998 17.6299C9.7998 17.3899 9.8498 17.1699 9.9598 16.9699C10.0698 16.7699 10.2098 16.6099 10.3898 16.4899C10.5698 16.3699 10.7698 16.2799 10.9898 16.2199C11.1498 16.1799 11.3998 16.1399 11.7298 16.0999C12.3998 16.0199 12.8898 15.9299 13.2098 15.8099C13.2098 15.6999 13.2098 15.6199 13.2098 15.5899C13.2098 15.2499 13.1298 15.0099 12.9698 14.8699C12.7598 14.6799 12.4398 14.5899 12.0198 14.5899C11.6298 14.5899 11.3398 14.6599 11.1598 14.7999C10.9698 14.9399 10.8398 15.1799 10.7498 15.5299L9.93981 15.4199C10.0098 15.0699 10.1398 14.7899 10.2998 14.5799C10.4698 14.3699 10.7098 14.1999 11.0298 14.0899C11.3498 13.9699 11.7198 13.9199 12.1398 13.9199C12.5598 13.9199 12.8998 13.9699 13.1598 14.0699C13.4198 14.1699 13.6098 14.2899 13.7398 14.4399C13.8598 14.5899 13.9498 14.7799 13.9998 14.9999C14.0298 15.1399 14.0398 15.3999 14.0398 15.7699V16.8799C14.0398 17.6499 14.0598 18.1399 14.0898 18.3399C14.1298 18.5399 14.1998 18.7399 14.2998 18.9299H13.4298C13.3398 18.7599 13.2898 18.5599 13.2598 18.3299L13.2798 18.3199ZM13.2098 16.4599C12.9098 16.5799 12.4598 16.6899 11.8498 16.7699C11.5098 16.8199 11.2698 16.8699 11.1298 16.9399C10.9898 16.9999 10.8798 17.0899 10.7998 17.2099C10.7198 17.3299 10.6798 17.4599 10.6798 17.5999C10.6798 17.8199 10.7598 18.0099 10.9298 18.1499C11.0998 18.2999 11.3398 18.3699 11.6698 18.3699C11.9998 18.3699 12.2698 18.2999 12.5198 18.1599C12.7698 18.0199 12.9498 17.8299 13.0698 17.5899C13.1598 17.3999 13.1998 17.1299 13.1998 16.7599V16.4599H13.2098Z" fill="#3D3D3B"/>
<path d="M15.0098 17.4602L15.8298 17.3302C15.8798 17.6602 15.9998 17.9102 16.2198 18.0902C16.4298 18.2702 16.7298 18.3502 17.0998 18.3502C17.4698 18.3502 17.7598 18.2702 17.9498 18.1202C18.1298 17.9602 18.2298 17.7802 18.2298 17.5702C18.2298 17.3802 18.1498 17.2402 17.9898 17.1302C17.8798 17.0602 17.5898 16.9602 17.1398 16.8502C16.5298 16.7002 16.1098 16.5602 15.8698 16.4502C15.6298 16.3402 15.4598 16.1802 15.3298 15.9802C15.2098 15.7802 15.1498 15.5602 15.1498 15.3202C15.1498 15.1002 15.1998 14.9002 15.2998 14.7102C15.3998 14.5202 15.5398 14.3702 15.7098 14.2502C15.8398 14.1502 16.0098 14.0702 16.2398 14.0102C16.4598 13.9402 16.6998 13.9102 16.9598 13.9102C17.3398 13.9102 17.6798 13.9702 17.9698 14.0802C18.2598 14.1902 18.4698 14.3402 18.6098 14.5302C18.7498 14.7202 18.8398 14.9702 18.8998 15.2902L18.0898 15.4002C18.0498 15.1502 17.9498 14.9502 17.7698 14.8102C17.5898 14.6702 17.3398 14.6002 17.0198 14.6002C16.6398 14.6002 16.3698 14.6602 16.1998 14.7902C16.0398 14.9202 15.9598 15.0602 15.9598 15.2302C15.9598 15.3402 15.9898 15.4402 16.0598 15.5202C16.1298 15.6102 16.2298 15.6802 16.3798 15.7402C16.4598 15.7702 16.7098 15.8402 17.1098 15.9502C17.6998 16.1102 18.1098 16.2402 18.3398 16.3302C18.5698 16.4302 18.7498 16.5802 18.8898 16.7702C19.0198 16.9602 19.0898 17.2002 19.0898 17.4802C19.0898 17.7602 19.0098 18.0202 18.8498 18.2602C18.6898 18.5002 18.4598 18.6902 18.1498 18.8302C17.8498 18.9602 17.4998 19.0302 17.1198 19.0302C16.4798 19.0302 15.9998 18.9002 15.6598 18.6302C15.3298 18.3702 15.1098 17.9702 15.0198 17.4502L15.0098 17.4602Z" fill="#3D3D3B"/>
<path d="M20.0696 18.9202V14.0202H20.8096V14.7102C20.9596 14.4702 21.1696 14.2802 21.4196 14.1302C21.6796 13.9802 21.9696 13.9102 22.2896 13.9102C22.6496 13.9102 22.9496 13.9902 23.1796 14.1402C23.4096 14.2902 23.5796 14.5002 23.6696 14.7702C24.0596 14.2002 24.5596 13.9102 25.1796 13.9102C25.6696 13.9102 26.0396 14.0402 26.2996 14.3102C26.5596 14.5802 26.6896 14.9902 26.6896 15.5502V18.9102H25.8596V15.8202C25.8596 15.4902 25.8296 15.2502 25.7796 15.1002C25.7296 14.9502 25.6296 14.8402 25.4896 14.7502C25.3496 14.6602 25.1796 14.6202 24.9896 14.6202C24.6496 14.6202 24.3596 14.7302 24.1296 14.9602C23.8996 15.1902 23.7896 15.5602 23.7896 16.0602V18.9102H22.9596V15.7302C22.9596 15.3602 22.8896 15.0802 22.7596 14.9002C22.6196 14.7202 22.3996 14.6202 22.0996 14.6202C21.8696 14.6202 21.6496 14.6802 21.4496 14.8002C21.2496 14.9202 21.1096 15.1002 21.0196 15.3402C20.9296 15.5802 20.8896 15.9202 20.8896 16.3602V18.9002H20.0596L20.0696 18.9202Z" fill="#3D3D3B"/>
<path d="M31.1499 18.9198V18.1998C30.7699 18.7498 30.2499 19.0298 29.5999 19.0298C29.3099 19.0298 29.0399 18.9798 28.7899 18.8598C28.5399 18.7498 28.3499 18.6098 28.2299 18.4398C28.1099 18.2698 28.0199 18.0698 27.9699 17.8198C27.9399 17.6598 27.9199 17.3998 27.9199 17.0498V14.0098H28.7499V16.7298C28.7499 17.1598 28.7699 17.4598 28.7999 17.6098C28.8499 17.8298 28.9599 17.9998 29.1299 18.1198C29.2999 18.2398 29.5099 18.3098 29.7599 18.3098C30.0099 18.3098 30.2399 18.2498 30.4599 18.1198C30.6799 17.9898 30.8299 17.8198 30.9199 17.5998C31.0099 17.3798 31.0599 17.0598 31.0599 16.6398V14.0198H31.8899V18.9198H31.1499Z" fill="#3D3D3B"/>
<path d="M32.8599 17.4602L33.6799 17.3302C33.7299 17.6602 33.8499 17.9102 34.0699 18.0902C34.2799 18.2702 34.5799 18.3502 34.9499 18.3502C35.3199 18.3502 35.6099 18.2702 35.7999 18.1202C35.9799 17.9602 36.0799 17.7802 36.0799 17.5702C36.0799 17.3802 35.9999 17.2402 35.8399 17.1302C35.7299 17.0602 35.4399 16.9602 34.9899 16.8502C34.3799 16.7002 33.9599 16.5602 33.7199 16.4502C33.4799 16.3402 33.3099 16.1802 33.1799 15.9802C33.0599 15.7802 32.9999 15.5602 32.9999 15.3202C32.9999 15.1002 33.0499 14.9002 33.1499 14.7102C33.2499 14.5202 33.3899 14.3702 33.5599 14.2502C33.6899 14.1502 33.8599 14.0702 34.0899 14.0102C34.3099 13.9402 34.5499 13.9102 34.8099 13.9102C35.1899 13.9102 35.5299 13.9702 35.8199 14.0802C36.1099 14.1902 36.3199 14.3402 36.4599 14.5302C36.5999 14.7202 36.6899 14.9702 36.7499 15.2902L35.9399 15.4002C35.8999 15.1502 35.7999 14.9502 35.6199 14.8102C35.4399 14.6702 35.1899 14.6002 34.8699 14.6002C34.4899 14.6002 34.2199 14.6602 34.0499 14.7902C33.8899 14.9202 33.8099 15.0602 33.8099 15.2302C33.8099 15.3402 33.8399 15.4402 33.9099 15.5202C33.9799 15.6102 34.0799 15.6802 34.2299 15.7402C34.3099 15.7702 34.5599 15.8402 34.9599 15.9502C35.5499 16.1102 35.9599 16.2402 36.1899 16.3302C36.4199 16.4302 36.5999 16.5802 36.7399 16.7702C36.8699 16.9602 36.9399 17.2002 36.9399 17.4802C36.9399 17.7602 36.8599 18.0202 36.6999 18.2602C36.5399 18.5002 36.3099 18.6902 35.9999 18.8302C35.6999 18.9602 35.3499 19.0302 34.9699 19.0302C34.3299 19.0302 33.8499 18.9002 33.5099 18.6302C33.1799 18.3702 32.9599 17.9702 32.8699 17.4502L32.8599 17.4602Z" fill="#3D3D3B"/>
<path d="M39.6598 17.8294V15.9694H37.8198V15.1994H39.6598V13.3594H40.4398V15.1994H42.2798V15.9694H40.4398V17.8294H39.6598Z" fill="#3D3D3B"/>
<path d="M46.1597 18.9202V12.1602H48.7097C49.1597 12.1602 49.4997 12.1802 49.7397 12.2202C50.0697 12.2802 50.3497 12.3802 50.5797 12.5402C50.7997 12.7002 50.9797 12.9102 51.1197 13.1902C51.2597 13.4702 51.3297 13.7802 51.3297 14.1102C51.3297 14.6902 51.1497 15.1702 50.7797 15.5702C50.4097 15.9702 49.7497 16.1702 48.7997 16.1702H47.0697V18.9202H46.1797H46.1597ZM47.0597 15.3702H48.8097C49.3897 15.3702 49.7997 15.2602 50.0397 15.0502C50.2797 14.8302 50.3997 14.5302 50.3997 14.1402C50.3997 13.8602 50.3297 13.6202 50.1897 13.4102C50.0497 13.2102 49.8597 13.0802 49.6197 13.0102C49.4697 12.9702 49.1897 12.9502 48.7897 12.9502H47.0597V15.3702Z" fill="#3D3D3B"/>
<path d="M52.3498 18.9204V14.0204H53.0998V14.7604C53.2898 14.4104 53.4698 14.1804 53.6298 14.0704C53.7898 13.9604 53.9698 13.9004 54.1598 13.9004C54.4398 13.9004 54.7198 13.9904 55.0098 14.1704L54.7198 14.9404C54.5198 14.8204 54.3098 14.7604 54.1098 14.7604C53.9298 14.7604 53.7698 14.8104 53.6198 14.9204C53.4798 15.0304 53.3698 15.1804 53.3098 15.3704C53.2198 15.6704 53.1698 15.9904 53.1698 16.3404V18.9104H52.3398L52.3498 18.9204Z" fill="#3D3D3B"/>
<path d="M55.1997 16.4702C55.1997 15.5602 55.4497 14.8902 55.9597 14.4502C56.3797 14.0902 56.8997 13.9102 57.4997 13.9102C58.1697 13.9102 58.7197 14.1302 59.1497 14.5702C59.5797 15.0102 59.7897 15.6202 59.7897 16.4002C59.7897 17.0302 59.6997 17.5302 59.5097 17.8902C59.3197 18.2502 59.0497 18.5302 58.6797 18.7302C58.3197 18.9302 57.9197 19.0302 57.4997 19.0302C56.8097 19.0302 56.2597 18.8102 55.8397 18.3702C55.4197 17.9302 55.2097 17.3002 55.2097 16.4702H55.1997ZM56.0497 16.4702C56.0497 17.1002 56.1897 17.5702 56.4597 17.8802C56.7297 18.1902 57.0797 18.3502 57.4897 18.3502C57.8997 18.3502 58.2497 18.1902 58.5197 17.8802C58.7897 17.5702 58.9297 17.0902 58.9297 16.4502C58.9297 15.8402 58.7897 15.3902 58.5197 15.0702C58.2497 14.7502 57.8997 14.6002 57.4897 14.6002C57.0797 14.6002 56.7297 14.7602 56.4597 15.0702C56.1897 15.3802 56.0497 15.8502 56.0497 16.4802V16.4702Z" fill="#3D3D3B"/>
<path d="M60.6099 19.3304L61.4199 19.4504C61.4499 19.7004 61.5499 19.8804 61.6999 19.9904C61.9099 20.1404 62.1899 20.2204 62.5399 20.2204C62.9199 20.2204 63.2199 20.1404 63.4299 19.9904C63.6399 19.8404 63.7799 19.6204 63.8499 19.3404C63.8899 19.1704 63.9099 18.8204 63.9099 18.2704C63.5499 18.7004 63.0899 18.9104 62.5499 18.9104C61.8799 18.9104 61.3599 18.6704 60.9899 18.1804C60.6199 17.6904 60.4399 17.1104 60.4399 16.4304C60.4399 15.9604 60.5199 15.5304 60.6899 15.1404C60.8599 14.7404 61.0999 14.4404 61.4299 14.2204C61.7499 14.0004 62.1299 13.9004 62.5599 13.9004C63.1399 13.9004 63.6199 14.1304 63.9899 14.6004V14.0104H64.7599V18.2504C64.7599 19.0104 64.6799 19.5504 64.5299 19.8704C64.3699 20.1904 64.1299 20.4404 63.7899 20.6204C63.4499 20.8004 63.0399 20.9004 62.5499 20.9004C61.9699 20.9004 61.4899 20.7704 61.1299 20.5104C60.7699 20.2504 60.5999 19.8504 60.6099 19.3204V19.3304ZM61.2999 16.3804C61.2999 17.0204 61.4299 17.4904 61.6799 17.7904C61.9399 18.0904 62.2599 18.2304 62.6399 18.2304C63.0199 18.2304 63.3399 18.0804 63.5999 17.7904C63.8599 17.5004 63.9899 17.0404 63.9899 16.4104C63.9899 15.7804 63.8599 15.3604 63.5899 15.0504C63.3199 14.7504 62.9999 14.5904 62.6299 14.5904C62.2599 14.5904 61.9499 14.7404 61.6899 15.0404C61.4299 15.3404 61.2999 15.7804 61.2999 16.3804Z" fill="#3D3D3B"/>
<path d="M66.01 18.9204V14.0204H66.76V14.7604C66.95 14.4104 67.13 14.1804 67.29 14.0704C67.45 13.9604 67.63 13.9004 67.82 13.9004C68.1 13.9004 68.38 13.9904 68.67 14.1704L68.38 14.9404C68.18 14.8204 67.97 14.7604 67.77 14.7604C67.59 14.7604 67.43 14.8104 67.28 14.9204C67.14 15.0304 67.03 15.1804 66.97 15.3704C66.88 15.6704 66.83 15.9904 66.83 16.3404V18.9104H66L66.01 18.9204Z" fill="#3D3D3B"/>
<path d="M72.3599 18.3199C72.0499 18.5799 71.7599 18.7699 71.4699 18.8699C71.1899 18.9799 70.8799 19.0299 70.5499 19.0299C70.0099 19.0299 69.5999 18.8999 69.3099 18.6399C69.0199 18.3799 68.8799 18.0399 68.8799 17.6299C68.8799 17.3899 68.9299 17.1699 69.0399 16.9699C69.1499 16.7699 69.2899 16.6099 69.4699 16.4899C69.6499 16.3699 69.8499 16.2799 70.0699 16.2199C70.2299 16.1799 70.4799 16.1399 70.8099 16.0999C71.4799 16.0199 71.9699 15.9299 72.2899 15.8099C72.2899 15.6999 72.2899 15.6199 72.2899 15.5899C72.2899 15.2499 72.2099 15.0099 72.0499 14.8699C71.8399 14.6799 71.5199 14.5899 71.0999 14.5899C70.7099 14.5899 70.4199 14.6599 70.2399 14.7999C70.0499 14.9399 69.9199 15.1799 69.8299 15.5299L69.0199 15.4199C69.0899 15.0699 69.2199 14.7899 69.3799 14.5799C69.5499 14.3699 69.7899 14.1999 70.1099 14.0899C70.4299 13.9699 70.7999 13.9199 71.2199 13.9199C71.6399 13.9199 71.9799 13.9699 72.2399 14.0699C72.4999 14.1699 72.6899 14.2899 72.8199 14.4399C72.9399 14.5899 73.0299 14.7799 73.0799 14.9999C73.1099 15.1399 73.1199 15.3999 73.1199 15.7699V16.8799C73.1199 17.6499 73.1399 18.1399 73.1699 18.3399C73.2099 18.5399 73.2799 18.7399 73.3799 18.9299H72.5099C72.4199 18.7599 72.3699 18.5599 72.3399 18.3299L72.3599 18.3199ZM72.2899 16.4599C71.9899 16.5799 71.5399 16.6899 70.9299 16.7699C70.5899 16.8199 70.3499 16.8699 70.2099 16.9399C70.0699 16.9999 69.9599 17.0899 69.8799 17.2099C69.7999 17.3299 69.7699 17.4599 69.7699 17.5999C69.7699 17.8199 69.8499 18.0099 70.0199 18.1499C70.1899 18.2999 70.4299 18.3699 70.7599 18.3699C71.0899 18.3699 71.3599 18.2999 71.6099 18.1599C71.8599 18.0199 72.0399 17.8299 72.1599 17.5899C72.2499 17.3999 72.2899 17.1299 72.2899 16.7599V16.4599Z" fill="#3D3D3B"/>
<path d="M74.4197 18.9202V14.0202H75.1597V14.7102C75.3097 14.4702 75.5197 14.2802 75.7697 14.1302C76.0297 13.9802 76.3197 13.9102 76.6397 13.9102C76.9997 13.9102 77.2997 13.9902 77.5297 14.1402C77.7597 14.2902 77.9297 14.5002 78.0197 14.7702C78.4097 14.2002 78.9097 13.9102 79.5297 13.9102C80.0197 13.9102 80.3897 14.0402 80.6497 14.3102C80.9097 14.5802 81.0397 14.9902 81.0397 15.5502V18.9102H80.2097V15.8202C80.2097 15.4902 80.1797 15.2502 80.1297 15.1002C80.0797 14.9502 79.9797 14.8402 79.8397 14.7502C79.6997 14.6602 79.5297 14.6202 79.3397 14.6202C78.9997 14.6202 78.7097 14.7302 78.4797 14.9602C78.2497 15.1902 78.1397 15.5602 78.1397 16.0602V18.9102H77.3097V15.7302C77.3097 15.3602 77.2397 15.0802 77.1097 14.9002C76.9697 14.7202 76.7497 14.6202 76.4497 14.6202C76.2197 14.6202 75.9997 14.6802 75.7997 14.8002C75.5997 14.9202 75.4597 15.1002 75.3697 15.3402C75.2797 15.5802 75.2397 15.9202 75.2397 16.3602V18.9002H74.4097L74.4197 18.9202Z" fill="#3D3D3B"/>
<path d="M82.2898 18.9202V14.0202H83.0298V14.7102C83.1798 14.4702 83.3898 14.2802 83.6398 14.1302C83.8998 13.9802 84.1898 13.9102 84.5098 13.9102C84.8698 13.9102 85.1698 13.9902 85.3998 14.1402C85.6298 14.2902 85.7998 14.5002 85.8898 14.7702C86.2798 14.2002 86.7798 13.9102 87.3998 13.9102C87.8898 13.9102 88.2598 14.0402 88.5198 14.3102C88.7798 14.5802 88.9098 14.9902 88.9098 15.5502V18.9102H88.0798V15.8202C88.0798 15.4902 88.0498 15.2502 87.9998 15.1002C87.9498 14.9502 87.8498 14.8402 87.7098 14.7502C87.5698 14.6602 87.3998 14.6202 87.2098 14.6202C86.8598 14.6202 86.5798 14.7302 86.3498 14.9602C86.1198 15.1902 86.0098 15.5602 86.0098 16.0602V18.9102H85.1798V15.7302C85.1798 15.3602 85.1098 15.0802 84.9798 14.9002C84.8498 14.7202 84.6198 14.6202 84.3198 14.6202C84.0898 14.6202 83.8698 14.6802 83.6698 14.8002C83.4698 14.9202 83.3298 15.1002 83.2398 15.3402C83.1498 15.5802 83.1098 15.9202 83.1098 16.3602V18.9002H82.2798L82.2898 18.9202Z" fill="#3D3D3B"/>
<path d="M93.5097 17.3399L94.3697 17.4499C94.2397 17.9499 93.9797 18.3399 93.6197 18.6199C93.2497 18.8999 92.7897 19.0399 92.2197 19.0399C91.4997 19.0399 90.9397 18.8199 90.5197 18.3799C90.0997 17.9399 89.8896 17.3199 89.8896 16.5199C89.8896 15.7199 90.0997 15.0599 90.5297 14.5999C90.9497 14.1499 91.5096 13.9199 92.1796 13.9199C92.8496 13.9199 93.3696 14.1399 93.7896 14.5899C94.1996 15.0399 94.4097 15.6599 94.4097 16.4699C94.4097 16.5199 94.4097 16.5899 94.4097 16.6899H90.7597C90.7897 17.2299 90.9397 17.6399 91.2197 17.9299C91.4897 18.2199 91.8397 18.3599 92.2397 18.3599C92.5397 18.3599 92.7997 18.2799 93.0197 18.1199C93.2397 17.9599 93.4097 17.7099 93.5297 17.3499L93.5097 17.3399ZM90.7896 15.9999H93.5297C93.4897 15.5899 93.3897 15.2799 93.2197 15.0699C92.9597 14.7499 92.6097 14.5899 92.1897 14.5899C91.8097 14.5899 91.4897 14.7199 91.2297 14.9699C90.9697 15.2299 90.8297 15.5699 90.7997 15.9899L90.7896 15.9999Z" fill="#3D3D3B"/>
<path d="M0.549805 26.8608C0.549805 25.9508 0.799805 25.2808 1.3098 24.8408C1.7298 24.4808 2.2498 24.3008 2.8498 24.3008C3.5198 24.3008 4.0698 24.5208 4.4998 24.9608C4.9298 25.4008 5.1398 26.0108 5.1398 26.7908C5.1398 27.4208 5.0498 27.9208 4.8598 28.2808C4.6698 28.6408 4.3998 28.9208 4.0298 29.1208C3.6698 29.3208 3.2698 29.4208 2.8498 29.4208C2.1598 29.4208 1.6098 29.2008 1.1898 28.7608C0.769805 28.3208 0.559805 27.6908 0.559805 26.8608H0.549805ZM1.3998 26.8608C1.3998 27.4908 1.5398 27.9608 1.8098 28.2708C2.0798 28.5808 2.4298 28.7408 2.8398 28.7408C3.2498 28.7408 3.5998 28.5808 3.8698 28.2708C4.1398 27.9608 4.2798 27.4808 4.2798 26.8408C4.2798 26.2308 4.1398 25.7808 3.8698 25.4608C3.5998 25.1508 3.2498 24.9908 2.8398 24.9908C2.4298 24.9908 2.0798 25.1508 1.8098 25.4608C1.5398 25.7708 1.3998 26.2408 1.3998 26.8708V26.8608Z" fill="#3D3D3B"/>
<path d="M6.30959 29.3095V25.0595H5.57959V24.4095H6.30959V23.8895C6.30959 23.5595 6.33959 23.3195 6.39959 23.1595C6.47959 22.9395 6.61959 22.7695 6.81959 22.6395C7.01959 22.5095 7.29959 22.4395 7.66959 22.4395C7.89959 22.4395 8.15959 22.4695 8.44959 22.5195L8.32959 23.2395C8.15959 23.2095 7.98959 23.1895 7.83959 23.1895C7.58959 23.1895 7.40959 23.2395 7.29959 23.3495C7.19959 23.4595 7.13959 23.6595 7.13959 23.9495V24.3995H8.09959V25.0495H7.13959V29.2995H6.30959V29.3095Z" fill="#3D3D3B"/>
<path d="M13.1797 28.5695L13.2997 29.2995C13.0697 29.3495 12.8597 29.3695 12.6697 29.3695C12.3697 29.3695 12.1297 29.3195 11.9697 29.2295C11.7997 29.1295 11.6897 29.0095 11.6197 28.8495C11.5497 28.6895 11.5197 28.3695 11.5197 27.8695V25.0495H10.9097V24.3995H11.5197V23.1895L12.3497 22.6895V24.3995H13.1897V25.0495H12.3497V27.9095C12.3497 28.1495 12.3597 28.2995 12.3897 28.3695C12.4197 28.4395 12.4697 28.4895 12.5297 28.5295C12.5997 28.5695 12.6897 28.5895 12.8097 28.5895C12.8997 28.5895 13.0197 28.5795 13.1697 28.5595L13.1797 28.5695Z" fill="#3D3D3B"/>
<path d="M13.9897 29.3108V22.5508H14.8197V24.9808C15.2097 24.5308 15.6997 24.3108 16.2897 24.3108C16.6497 24.3108 16.9697 24.3808 17.2397 24.5208C17.5097 24.6608 17.6997 24.8608 17.8097 25.1108C17.9297 25.3608 17.9797 25.7308 17.9797 26.2108V29.3108H17.1497V26.2108C17.1497 25.7908 17.0597 25.4908 16.8797 25.3008C16.6997 25.1108 16.4497 25.0208 16.1197 25.0208C15.8697 25.0208 15.6397 25.0808 15.4297 25.2108C15.2097 25.3408 15.0597 25.5108 14.9697 25.7308C14.8797 25.9508 14.8297 26.2508 14.8297 26.6308V29.3108H13.9997H13.9897Z" fill="#3D3D3B"/>
<path d="M22.6 27.7403L23.46 27.8503C23.32 28.3503 23.07 28.7403 22.71 29.0203C22.34 29.3003 21.88 29.4403 21.31 29.4403C20.59 29.4403 20.03 29.2203 19.61 28.7803C19.19 28.3403 18.98 27.7203 18.98 26.9203C18.98 26.1203 19.19 25.4603 19.62 25.0003C20.04 24.5503 20.59 24.3203 21.27 24.3203C21.95 24.3203 22.46 24.5403 22.88 24.9903C23.29 25.4403 23.5 26.0603 23.5 26.8703C23.5 26.9203 23.5 26.9903 23.5 27.0903H19.85C19.88 27.6303 20.03 28.0403 20.31 28.3303C20.58 28.6203 20.93 28.7603 21.33 28.7603C21.63 28.7603 21.89 28.6803 22.11 28.5203C22.33 28.3603 22.5 28.1003 22.62 27.7503L22.6 27.7403ZM19.87 26.3903H22.61C22.57 25.9803 22.47 25.6703 22.3 25.4603C22.04 25.1403 21.69 24.9803 21.27 24.9803C20.89 24.9803 20.57 25.1103 20.31 25.3603C20.05 25.6203 19.91 25.9603 19.88 26.3803L19.87 26.3903Z" fill="#3D3D3B"/>
<path d="M27.25 29.3108V22.5508H32.14V23.3508H28.14V25.4208H31.89V26.2108H28.14V28.5208H32.3V29.3108H27.25Z" fill="#3D3D3B"/>
<path d="M36.6397 29.3104V28.5904C36.2597 29.1404 35.7397 29.4204 35.0897 29.4204C34.7997 29.4204 34.5297 29.3704 34.2797 29.2504C34.0297 29.1404 33.8397 29.0004 33.7197 28.8304C33.5997 28.6604 33.5097 28.4604 33.4597 28.2104C33.4297 28.0504 33.4097 27.7904 33.4097 27.4404V24.4004H34.2397V27.1204C34.2397 27.5504 34.2597 27.8504 34.2897 28.0004C34.3397 28.2204 34.4497 28.3904 34.6197 28.5104C34.7897 28.6304 34.9997 28.7004 35.2497 28.7004C35.4997 28.7004 35.7297 28.6404 35.9497 28.5104C36.1697 28.3804 36.3197 28.2104 36.4097 27.9904C36.4997 27.7704 36.5497 27.4504 36.5497 27.0304V24.4104H37.3797V29.3104H36.6397Z" fill="#3D3D3B"/>
<path d="M38.6697 29.3091V24.4091H39.4197V25.1491C39.6097 24.7991 39.7897 24.5691 39.9497 24.4591C40.1097 24.3491 40.2897 24.2891 40.4797 24.2891C40.7597 24.2891 41.0397 24.3791 41.3297 24.5591L41.0397 25.3291C40.8397 25.2091 40.6297 25.1491 40.4297 25.1491C40.2497 25.1491 40.0897 25.1991 39.9397 25.3091C39.7997 25.4191 39.6897 25.5691 39.6297 25.7591C39.5397 26.0591 39.4897 26.3791 39.4897 26.7291V29.2891H38.6597L38.6697 29.3091Z" fill="#3D3D3B"/>
<path d="M41.52 26.8608C41.52 25.9508 41.77 25.2808 42.28 24.8408C42.7 24.4808 43.21 24.3008 43.82 24.3008C44.49 24.3008 45.04 24.5208 45.47 24.9608C45.9 25.4008 46.11 26.0108 46.11 26.7908C46.11 27.4208 46.02 27.9208 45.83 28.2808C45.64 28.6408 45.37 28.9208 45 29.1208C44.64 29.3208 44.24 29.4208 43.82 29.4208C43.13 29.4208 42.58 29.2008 42.16 28.7608C41.74 28.3208 41.53 27.6908 41.53 26.8608H41.52ZM42.37 26.8608C42.37 27.4908 42.51 27.9608 42.78 28.2708C43.05 28.5808 43.4 28.7408 43.81 28.7408C44.22 28.7408 44.57 28.5808 44.84 28.2708C45.11 27.9608 45.25 27.4808 45.25 26.8408C45.25 26.2308 45.11 25.7808 44.84 25.4608C44.56 25.1508 44.22 24.9908 43.81 24.9908C43.4 24.9908 43.05 25.1508 42.78 25.4608C42.51 25.7708 42.37 26.2408 42.37 26.8708V26.8608Z" fill="#3D3D3B"/>
<path d="M47.0796 31.1908V24.4108H47.8396V25.0508C48.0196 24.8008 48.2196 24.6108 48.4396 24.4908C48.6596 24.3708 48.9396 24.3008 49.2596 24.3008C49.6796 24.3008 50.0496 24.4108 50.3696 24.6208C50.6896 24.8408 50.9296 25.1408 51.0896 25.5308C51.2496 25.9208 51.3296 26.3508 51.3296 26.8208C51.3296 27.3208 51.2396 27.7708 51.0596 28.1708C50.8796 28.5708 50.6196 28.8808 50.2796 29.0908C49.9396 29.3008 49.5796 29.4108 49.1996 29.4108C48.9196 29.4108 48.6696 29.3508 48.4496 29.2408C48.2296 29.1208 48.0496 28.9808 47.9096 28.8008V31.1908H47.0796ZM47.8296 26.8908C47.8296 27.5208 47.9596 27.9908 48.2096 28.2908C48.4696 28.5908 48.7696 28.7408 49.1396 28.7408C49.5096 28.7408 49.8196 28.5808 50.0896 28.2708C50.3496 27.9608 50.4796 27.4708 50.4796 26.8208C50.4796 26.1708 50.3496 25.7308 50.0896 25.4208C49.8296 25.1108 49.5296 24.9508 49.1696 24.9508C48.8096 24.9508 48.4996 25.1208 48.2296 25.4508C47.9596 25.7808 47.8196 26.2608 47.8196 26.8908H47.8296Z" fill="#3D3D3B"/>
<path d="M55.6898 27.7403L56.5498 27.8503C56.4098 28.3503 56.1598 28.7403 55.7998 29.0203C55.4298 29.3003 54.9698 29.4403 54.3998 29.4403C53.6798 29.4403 53.1198 29.2203 52.6998 28.7803C52.2798 28.3403 52.0698 27.7203 52.0698 26.9203C52.0698 26.1203 52.2798 25.4603 52.7098 25.0003C53.1298 24.5503 53.6798 24.3203 54.3598 24.3203C55.0398 24.3203 55.5498 24.5403 55.9698 24.9903C56.3898 25.4403 56.5898 26.0603 56.5898 26.8703C56.5898 26.9203 56.5898 26.9903 56.5898 27.0903H52.9398C52.9698 27.6303 53.1198 28.0403 53.3998 28.3303C53.6698 28.6203 54.0098 28.7603 54.4198 28.7603C54.7198 28.7603 54.9798 28.6803 55.1998 28.5203C55.4198 28.3603 55.5898 28.1003 55.7098 27.7503L55.6898 27.7403ZM52.9598 26.3903H55.6998C55.6598 25.9803 55.5598 25.6703 55.3898 25.4603C55.1298 25.1403 54.7798 24.9803 54.3598 24.9803C53.9798 24.9803 53.6598 25.1103 53.3998 25.3603C53.1398 25.6203 52.9998 25.9603 52.9698 26.3803L52.9598 26.3903Z" fill="#3D3D3B"/>
<path d="M60.7896 28.7105C60.4796 28.9705 60.1896 29.1605 59.8996 29.2605C59.6196 29.3705 59.3096 29.4205 58.9796 29.4205C58.4396 29.4205 58.0296 29.2905 57.7396 29.0305C57.4496 28.7705 57.3096 28.4305 57.3096 28.0205C57.3096 27.7805 57.3596 27.5605 57.4696 27.3605C57.5796 27.1605 57.7196 27.0005 57.8996 26.8805C58.0796 26.7605 58.2796 26.6705 58.4996 26.6105C58.6596 26.5705 58.9096 26.5305 59.2396 26.4905C59.9096 26.4105 60.3996 26.3205 60.7196 26.2005C60.7196 26.0905 60.7196 26.0105 60.7196 25.9805C60.7196 25.6405 60.6396 25.4005 60.4796 25.2605C60.2696 25.0705 59.9496 24.9805 59.5296 24.9805C59.1396 24.9805 58.8496 25.0505 58.6596 25.1905C58.4696 25.3305 58.3396 25.5705 58.2496 25.9205L57.4396 25.8105C57.5096 25.4605 57.6396 25.1805 57.7996 24.9705C57.9696 24.7605 58.2096 24.5905 58.5296 24.4805C58.8496 24.3605 59.2196 24.3105 59.6396 24.3105C60.0596 24.3105 60.3996 24.3605 60.6596 24.4605C60.9196 24.5605 61.1096 24.6805 61.2396 24.8305C61.3596 24.9805 61.4496 25.1705 61.4996 25.3905C61.5296 25.5305 61.5396 25.7905 61.5396 26.1605V27.2705C61.5396 28.0405 61.5596 28.5305 61.5896 28.7305C61.6296 28.9305 61.6996 29.1305 61.7996 29.3205H60.9296C60.8396 29.1505 60.7896 28.9505 60.7596 28.7205L60.7896 28.7105ZM60.7196 26.8505C60.4196 26.9705 59.9696 27.0805 59.3596 27.1605C59.0196 27.2105 58.7796 27.2605 58.6396 27.3305C58.4996 27.3905 58.3896 27.4805 58.3096 27.6005C58.2296 27.7205 58.1896 27.8505 58.1896 27.9905C58.1896 28.2105 58.2696 28.4005 58.4396 28.5405C58.6096 28.6905 58.8496 28.7605 59.1796 28.7605C59.5096 28.7605 59.7796 28.6905 60.0296 28.5505C60.2796 28.4105 60.4596 28.2205 60.5796 27.9805C60.6696 27.7905 60.7096 27.5205 60.7096 27.1505V26.8505H60.7196Z" fill="#3D3D3B"/>
<path d="M62.8496 29.3108V24.4108H63.5996V25.1108C63.9596 24.5708 64.4796 24.3008 65.1596 24.3008C65.4596 24.3008 65.7296 24.3508 65.9696 24.4608C66.2196 24.5708 66.3996 24.7108 66.5296 24.8808C66.6496 25.0508 66.7396 25.2608 66.7896 25.4908C66.8196 25.6408 66.8396 25.9108 66.8396 26.3008V29.3108H66.0096V26.3308C66.0096 25.9908 65.9796 25.7408 65.9096 25.5708C65.8496 25.4008 65.7296 25.2708 65.5696 25.1708C65.4096 25.0708 65.2096 25.0208 64.9896 25.0208C64.6396 25.0208 64.3296 25.1308 64.0696 25.3608C63.8096 25.5808 63.6796 26.0108 63.6796 26.6408V29.3208H62.8496V29.3108Z" fill="#3D3D3B"/>
<path d="M75.2696 22.5508H76.1596V26.4608C76.1596 27.1408 76.0796 27.6808 75.9296 28.0808C75.7796 28.4808 75.4996 28.8108 75.0996 29.0608C74.6996 29.3108 74.1696 29.4408 73.5196 29.4408C72.8696 29.4408 72.3696 29.3308 71.9696 29.1108C71.5696 28.8908 71.2796 28.5808 71.1096 28.1608C70.9396 27.7508 70.8496 27.1808 70.8496 26.4608V22.5508H71.7396V26.4508C71.7396 27.0408 71.7896 27.4708 71.8996 27.7508C72.0096 28.0308 72.1996 28.2408 72.4596 28.3908C72.7296 28.5408 73.0496 28.6208 73.4396 28.6208C74.0996 28.6208 74.5696 28.4708 74.8496 28.1708C75.1296 27.8708 75.2696 27.3008 75.2696 26.4508V22.5508Z" fill="#3D3D3B"/>
<path d="M77.5498 29.3108V24.4108H78.2998V25.1108C78.6598 24.5708 79.1798 24.3008 79.8598 24.3008C80.1598 24.3008 80.4298 24.3508 80.6698 24.4608C80.9198 24.5708 81.0998 24.7108 81.2298 24.8808C81.3498 25.0508 81.4398 25.2608 81.4898 25.4908C81.5198 25.6408 81.5398 25.9108 81.5398 26.3008V29.3108H80.7098V26.3308C80.7098 25.9908 80.6798 25.7408 80.6098 25.5708C80.5498 25.4008 80.4298 25.2708 80.2698 25.1708C80.1098 25.0708 79.9098 25.0208 79.6898 25.0208C79.3398 25.0208 79.0298 25.1308 78.7698 25.3608C78.5098 25.5808 78.3798 26.0108 78.3798 26.6408V29.3208H77.5498V29.3108Z" fill="#3D3D3B"/>
<path d="M82.8096 23.5108V22.5508H83.6396V23.5108H82.8096ZM82.8096 29.3108V24.4108H83.6396V29.3108H82.8096Z" fill="#3D3D3B"/>
<path d="M84.5898 26.8608C84.5898 25.9508 84.8398 25.2808 85.3498 24.8408C85.7698 24.4808 86.2798 24.3008 86.8898 24.3008C87.5598 24.3008 88.1098 24.5208 88.5398 24.9608C88.9698 25.4008 89.1798 26.0108 89.1798 26.7908C89.1798 27.4208 89.0898 27.9208 88.8998 28.2808C88.7098 28.6408 88.4398 28.9208 88.0698 29.1208C87.7098 29.3208 87.3098 29.4208 86.8898 29.4208C86.1998 29.4208 85.6498 29.2008 85.2298 28.7608C84.8098 28.3208 84.5998 27.6908 84.5998 26.8608H84.5898ZM85.4498 26.8608C85.4498 27.4908 85.5898 27.9608 85.8598 28.2708C86.1298 28.5808 86.4798 28.7408 86.8898 28.7408C87.2998 28.7408 87.6498 28.5808 87.9198 28.2708C88.1898 27.9608 88.3298 27.4808 88.3298 26.8408C88.3298 26.2308 88.1898 25.7808 87.9198 25.4608C87.6398 25.1508 87.2998 24.9908 86.8898 24.9908C86.4798 24.9908 86.1298 25.1508 85.8598 25.4608C85.5898 25.7708 85.4498 26.2408 85.4498 26.8708V26.8608Z" fill="#3D3D3B"/>
<path d="M90.1597 29.3108V24.4108H90.9097V25.1108C91.2697 24.5708 91.7897 24.3008 92.4697 24.3008C92.7697 24.3008 93.0397 24.3508 93.2797 24.4608C93.5297 24.5708 93.7097 24.7108 93.8397 24.8808C93.9597 25.0508 94.0497 25.2608 94.0997 25.4908C94.1297 25.6408 94.1497 25.9108 94.1497 26.3008V29.3108H93.3197V26.3308C93.3197 25.9908 93.2897 25.7408 93.2197 25.5708C93.1597 25.4008 93.0397 25.2708 92.8797 25.1708C92.7197 25.0708 92.5197 25.0208 92.2997 25.0208C91.9497 25.0208 91.6397 25.1308 91.3797 25.3608C91.1197 25.5808 90.9997 26.0108 90.9997 26.6408V29.3208H90.1697L90.1597 29.3108Z" fill="#3D3D3B"/>
<path d="M27.85 5.82078L28.75 6.05078C28.56 6.79078 28.22 7.35078 27.73 7.74078C27.24 8.13078 26.64 8.32078 25.94 8.32078C25.24 8.32078 24.61 8.17078 24.16 7.87078C23.7 7.57078 23.35 7.14078 23.11 6.58078C22.87 6.02078 22.75 5.41078 22.75 4.76078C22.75 4.05078 22.88 3.44078 23.16 2.91078C23.43 2.38078 23.81 1.98078 24.31 1.71078C24.81 1.44078 25.36 1.30078 25.96 1.30078C26.64 1.30078 27.21 1.47078 27.67 1.82078C28.13 2.17078 28.46 2.65078 28.64 3.28078L27.76 3.49078C27.6 3.00078 27.37 2.64078 27.08 2.41078C26.78 2.18078 26.4 2.07078 25.95 2.07078C25.43 2.07078 24.99 2.19078 24.64 2.44078C24.29 2.69078 24.04 3.03078 23.9 3.45078C23.76 3.87078 23.69 4.30078 23.69 4.75078C23.69 5.33078 23.77 5.83078 23.94 6.26078C24.11 6.69078 24.37 7.01078 24.72 7.23078C25.07 7.44078 25.46 7.55078 25.87 7.55078C26.37 7.55078 26.8 7.41078 27.15 7.11078C27.5 6.82078 27.73 6.39078 27.86 5.82078H27.85Z" fill="#3D3D3B"/>
<path d="M29.4399 5.74969C29.4399 4.83969 29.6899 4.16969 30.1999 3.72969C30.6199 3.36969 31.1399 3.17969 31.7499 3.17969C32.4299 3.17969 32.9799 3.39969 33.4099 3.83969C33.8399 4.27969 34.0499 4.88969 34.0499 5.66969C34.0499 6.29969 33.9599 6.79969 33.7699 7.15969C33.5799 7.51969 33.2999 7.79969 32.9399 7.99969C32.5799 8.19969 32.1799 8.29969 31.7499 8.29969C31.0599 8.29969 30.5099 8.07969 30.0799 7.63969C29.6599 7.19969 29.4399 6.55969 29.4399 5.72969V5.74969ZM30.2999 5.74969C30.2999 6.37969 30.4399 6.84969 30.7099 7.15969C30.9799 7.46969 31.3299 7.62969 31.7499 7.62969C32.1699 7.62969 32.5099 7.46969 32.7799 7.15969C33.0499 6.83969 33.1899 6.36969 33.1899 5.71969C33.1899 5.10969 33.0499 4.64969 32.7799 4.33969C32.4999 4.02969 32.1599 3.86969 31.7499 3.86969C31.3399 3.86969 30.9899 4.02969 30.7099 4.33969C30.4399 4.64969 30.2999 5.11969 30.2999 5.74969Z" fill="#3D3D3B"/>
<path d="M37.2597 5.33008H34.6997V6.17008H37.2597V5.33008Z" fill="#3D3D3B"/>
<path d="M38.3797 8.20055V3.94055H37.6396V3.29055H38.3797V2.77055C38.3797 2.44055 38.4096 2.19055 38.4696 2.03055C38.5496 1.81055 38.6896 1.64055 38.8896 1.51055C39.0896 1.38055 39.3796 1.31055 39.7396 1.31055C39.9696 1.31055 40.2296 1.34055 40.5196 1.39055L40.3896 2.12055C40.2196 2.09055 40.0496 2.07055 39.8996 2.07055C39.6496 2.07055 39.4696 2.12055 39.3596 2.23055C39.2596 2.34055 39.1996 2.54055 39.1996 2.84055V3.29055H40.1596V3.94055H39.1996V8.21055H38.3696L38.3797 8.20055Z" fill="#3D3D3B"/>
<path d="M44.03 8.19953V7.47953C43.65 8.03953 43.13 8.30953 42.47 8.30953C42.18 8.30953 41.91 8.24953 41.66 8.13953C41.41 8.02953 41.22 7.88953 41.1 7.71953C40.98 7.54953 40.89 7.34953 40.84 7.09953C40.81 6.93953 40.79 6.67953 40.79 6.31953V3.26953H41.62V5.99953C41.62 6.43953 41.64 6.72953 41.67 6.87953C41.72 7.09953 41.83 7.26953 42 7.39953C42.17 7.51953 42.38 7.58953 42.63 7.58953C42.88 7.58953 43.11 7.52953 43.33 7.39953C43.55 7.26953 43.7 7.09953 43.8 6.87953C43.89 6.65953 43.94 6.33953 43.94 5.91953V3.28953H44.77V8.20953H44.02L44.03 8.19953Z" fill="#3D3D3B"/>
<path d="M46.0796 8.19969V3.28969H46.8296V3.98969C47.1896 3.44969 47.7096 3.17969 48.3896 3.17969C48.6896 3.17969 48.9596 3.22969 49.2096 3.33969C49.4596 3.44969 49.6396 3.58969 49.7696 3.75969C49.8896 3.92969 49.9796 4.13969 50.0296 4.37969C50.0596 4.52969 50.0796 4.79969 50.0796 5.18969V8.20969H49.2496V5.21969C49.2496 4.87969 49.2196 4.62969 49.1496 4.45969C49.0896 4.28969 48.9696 4.15969 48.8096 4.05969C48.6396 3.95969 48.4496 3.90969 48.2296 3.90969C47.8796 3.90969 47.5696 4.01969 47.3096 4.24969C47.0496 4.47969 46.9196 4.89969 46.9196 5.52969V8.20969H46.0896L46.0796 8.19969Z" fill="#3D3D3B"/>
<path d="M54.5498 8.19992V7.57992C54.2398 8.06992 53.7798 8.30992 53.1798 8.30992C52.7898 8.30992 52.4298 8.19992 52.0998 7.98992C51.7698 7.76992 51.5198 7.46992 51.3398 7.07992C51.1598 6.68992 51.0698 6.24992 51.0698 5.73992C51.0698 5.22992 51.1498 4.79992 51.3198 4.39992C51.4798 3.99992 51.7298 3.68992 52.0598 3.47992C52.3898 3.26992 52.7498 3.15992 53.1598 3.15992C53.4598 3.15992 53.7198 3.21992 53.9498 3.34992C54.1798 3.46992 54.3698 3.63992 54.5098 3.83992V1.41992H55.3398V8.20992H54.5698L54.5498 8.19992ZM51.9098 5.74992C51.9098 6.37992 52.0398 6.84992 52.3098 7.15992C52.5798 7.46992 52.8898 7.62992 53.2498 7.62992C53.6098 7.62992 53.9198 7.47992 54.1798 7.17992C54.4298 6.87992 54.5598 6.42992 54.5598 5.81992C54.5598 5.14992 54.4298 4.64992 54.1698 4.33992C53.9098 4.02992 53.5898 3.86992 53.2098 3.86992C52.8298 3.86992 52.5298 4.01992 52.2798 4.31992C52.0298 4.61992 51.9098 5.09992 51.9098 5.74992Z" fill="#3D3D3B"/>
<path d="M59.9896 6.61945L60.8496 6.72945C60.7096 7.22945 60.4596 7.61945 60.0996 7.89945C59.7296 8.17945 59.2596 8.31945 58.6896 8.31945C57.9696 8.31945 57.3996 8.09945 56.9796 7.65945C56.5596 7.21945 56.3496 6.59945 56.3496 5.79945C56.3496 4.99945 56.5596 4.32945 56.9896 3.86945C57.4196 3.40945 57.9696 3.18945 58.6496 3.18945C59.3296 3.18945 59.8396 3.40945 60.2596 3.85945C60.6796 4.30945 60.8796 4.93945 60.8796 5.74945C60.8796 5.79945 60.8796 5.86945 60.8796 5.96945H57.2096C57.2396 6.50945 57.3896 6.91945 57.6696 7.20945C57.9396 7.49945 58.2896 7.63945 58.6996 7.63945C59.0096 7.63945 59.2696 7.55945 59.4796 7.39945C59.6996 7.23945 59.8696 6.97945 59.9896 6.62945V6.61945ZM57.2596 5.26945H59.9996C59.9596 4.85945 59.8596 4.54945 59.6896 4.33945C59.4196 4.01945 59.0796 3.85945 58.6596 3.85945C58.2796 3.85945 57.9596 3.98945 57.6896 4.23945C57.4296 4.49945 57.2896 4.83945 57.2596 5.26945Z" fill="#3D3D3B"/>
<path d="M65.0896 8.19992V7.57992C64.7796 8.06992 64.3196 8.30992 63.7096 8.30992C63.3196 8.30992 62.9596 8.19992 62.6296 7.98992C62.2996 7.76992 62.0496 7.46992 61.8696 7.07992C61.6896 6.68992 61.5996 6.24992 61.5996 5.73992C61.5996 5.22992 61.6796 4.79992 61.8496 4.39992C62.0096 3.99992 62.2596 3.68992 62.5896 3.47992C62.9196 3.26992 63.2796 3.15992 63.6896 3.15992C63.9896 3.15992 64.2496 3.21992 64.4796 3.34992C64.7096 3.46992 64.8996 3.63992 65.0496 3.83992V1.41992H65.8796V8.20992H65.1096L65.0896 8.19992ZM62.4496 5.74992C62.4496 6.37992 62.5796 6.84992 62.8496 7.15992C63.1096 7.46992 63.4296 7.62992 63.7896 7.62992C64.1496 7.62992 64.4596 7.47992 64.7196 7.17992C64.9696 6.87992 65.0996 6.42992 65.0996 5.81992C65.0996 5.14992 64.9696 4.64992 64.7096 4.33992C64.4496 4.02992 64.1296 3.86992 63.7496 3.86992C63.3696 3.86992 63.0696 4.01992 62.8196 4.31992C62.5696 4.61992 62.4496 5.09992 62.4496 5.74992Z" fill="#3D3D3B"/>
<path d="M70.5698 8.19992H69.7998V1.41992H70.6298V3.83992C70.9798 3.39992 71.4298 3.17992 71.9798 3.17992C72.2798 3.17992 72.5698 3.23992 72.8398 3.35992C73.1098 3.47992 73.3298 3.64992 73.5098 3.86992C73.6798 4.08992 73.8198 4.35992 73.9198 4.66992C74.0198 4.97992 74.0698 5.31992 74.0698 5.66992C74.0698 6.50992 73.8598 7.15992 73.4498 7.61992C73.0298 8.07992 72.5298 8.30992 71.9498 8.30992C71.3698 8.30992 70.9098 8.06992 70.5798 7.57992V8.19992H70.5698ZM70.5598 5.70992C70.5598 6.29992 70.6398 6.71992 70.7998 6.98992C71.0598 7.41992 71.4198 7.62992 71.8598 7.62992C72.2198 7.62992 72.5398 7.46992 72.7998 7.15992C73.0698 6.83992 73.1998 6.36992 73.1998 5.74992C73.1998 5.12992 73.0698 4.62992 72.8198 4.32992C72.5698 4.01992 72.2598 3.86992 71.8998 3.86992C71.5398 3.86992 71.2198 4.02992 70.9598 4.33992C70.6898 4.65992 70.5598 5.10992 70.5598 5.70992Z" fill="#3D3D3B"/>
<path d="M75.0398 10.1008L74.9498 9.32078C75.1298 9.37078 75.2898 9.39078 75.4298 9.39078C75.6098 9.39078 75.7598 9.36078 75.8698 9.30078C75.9798 9.24078 76.0698 9.15078 76.1398 9.04078C76.1898 8.96078 76.2798 8.75078 76.3898 8.42078C76.4098 8.37078 76.4298 8.31078 76.4598 8.22078L74.5898 3.30078H75.4898L76.5098 6.15078C76.6398 6.51078 76.7598 6.89078 76.8698 7.29078C76.9698 6.91078 77.0798 6.53078 77.2098 6.17078L78.2598 3.31078H79.0898L77.2198 8.31078C77.0198 8.85078 76.8598 9.22078 76.7498 9.43078C76.5998 9.70078 76.4298 9.91078 76.2398 10.0308C76.0498 10.1608 75.8198 10.2208 75.5598 10.2208C75.3998 10.2208 75.2198 10.1908 75.0198 10.1208L75.0398 10.1008Z" fill="#3D3D3B"/>
<path d="M84.27 7.46031L84.39 8.20031C84.16 8.25031 83.95 8.27031 83.76 8.27031C83.46 8.27031 83.22 8.22031 83.06 8.13031C82.89 8.03031 82.78 7.91031 82.71 7.75031C82.64 7.59031 82.61 7.27031 82.61 6.77031V3.94031H82V3.29031H82.61V2.07031L83.44 1.57031V3.29031H84.28V3.94031H83.44V6.81031C83.44 7.05031 83.45 7.20031 83.48 7.27031C83.51 7.34031 83.56 7.39031 83.62 7.43031C83.69 7.47031 83.78 7.49031 83.9 7.49031C83.99 7.49031 84.11 7.48031 84.26 7.46031H84.27Z" fill="#3D3D3B"/>
<path d="M85.0798 8.19992V1.41992H85.9098V3.84992C86.2998 3.39992 86.7898 3.16992 87.3798 3.16992C87.7398 3.16992 88.0598 3.23992 88.3298 3.38992C88.5998 3.52992 88.7898 3.72992 88.9098 3.98992C89.0298 4.23992 89.0798 4.60992 89.0798 5.08992V8.19992H88.2498V5.08992C88.2498 4.66992 88.1598 4.36992 87.9798 4.17992C87.7998 3.98992 87.5398 3.89992 87.2098 3.89992C86.9598 3.89992 86.7298 3.95992 86.5098 4.08992C86.2898 4.21992 86.1398 4.38992 86.0398 4.60992C85.9498 4.82992 85.8998 5.12992 85.8998 5.51992V8.20992H85.0698L85.0798 8.19992Z" fill="#3D3D3B"/>
<path d="M93.7198 6.61945L94.5798 6.72945C94.4398 7.22945 94.1898 7.61945 93.8198 7.89945C93.4498 8.17945 92.9798 8.31945 92.4098 8.31945C91.6898 8.31945 91.1198 8.09945 90.6998 7.65945C90.2798 7.21945 90.0698 6.59945 90.0698 5.79945C90.0698 4.99945 90.2798 4.32945 90.7098 3.86945C91.1398 3.40945 91.6898 3.18945 92.3698 3.18945C93.0498 3.18945 93.5598 3.40945 93.9798 3.85945C94.3998 4.30945 94.5998 4.93945 94.5998 5.74945C94.5998 5.79945 94.5998 5.86945 94.5998 5.96945H90.9298C90.9598 6.50945 91.1098 6.91945 91.3898 7.20945C91.6598 7.49945 92.0098 7.63945 92.4198 7.63945C92.7298 7.63945 92.9898 7.55945 93.1998 7.39945C93.4198 7.23945 93.5898 6.97945 93.7098 6.62945L93.7198 6.61945ZM90.9798 5.26945H93.7198C93.6798 4.85945 93.5798 4.54945 93.4098 4.33945C93.1398 4.01945 92.7998 3.85945 92.3798 3.85945C91.9998 3.85945 91.6798 3.98945 91.4198 4.23945C91.1598 4.49945 91.0098 4.83945 90.9898 5.26945H90.9798Z" fill="#3D3D3B"/>
<path fill-rule="evenodd" clip-rule="evenodd" d="M126.43 5.64031L126.19 4.99031L126.04 4.57031L125.89 4.99031L125.65 5.64031L124.92 5.66031L124.42 5.67031L124.83 5.96031L125.4 6.37031L125.19 7.03031L125.05 7.47031L125.43 7.21031L126.04 6.81031L126.64 7.21031L127.03 7.47031L126.88 7.03031L126.68 6.37031L127.25 5.96031L127.65 5.67031L127.16 5.66031L126.43 5.64031Z" fill="#3D3D3B"/>
<path fill-rule="evenodd" clip-rule="evenodd" d="M131.63 7.01922L131.39 6.36922L131.24 5.94922L131.08 6.36922L130.85 7.01922L130.12 7.02922L129.62 7.04922L130.03 7.32922L130.6 7.74922L130.39 8.39922L130.25 8.83922L130.64 8.58922L131.24 8.18922L131.84 8.58922L132.23 8.83922L132.08 8.39922L131.88 7.74922L132.45 7.32922L132.85 7.04922L132.36 7.02922L131.63 7.01922Z" fill="#3D3D3B"/>
<path fill-rule="evenodd" clip-rule="evenodd" d="M134.32 11.4795L134.11 12.1395L133.97 12.5795L134.36 12.3295L134.96 11.9195L135.56 12.3295L135.94 12.5795L135.81 12.1395L135.6 11.4795L136.17 11.0695L136.57 10.7795L136.08 10.7695L135.35 10.7595L135.11 10.1095L134.96 9.68945L134.8 10.1095L134.57 10.7595L133.84 10.7695L133.34 10.7795L133.74 11.0695L134.32 11.4795Z" fill="#3D3D3B"/>
<path fill-rule="evenodd" clip-rule="evenodd" d="M137.94 15.9201L137.45 15.9101L136.72 15.9001L136.48 15.2501L136.32 14.8301L136.17 15.2501L135.93 15.9001L135.2 15.9101L134.71 15.9201L135.12 16.2101L135.69 16.6201L135.48 17.2801L135.34 17.7201L135.73 17.4601L136.32 17.0701L136.93 17.4601L137.32 17.7201L137.17 17.2801L136.97 16.6201L137.54 16.2101L137.94 15.9201Z" fill="#3D3D3B"/>
<path fill-rule="evenodd" clip-rule="evenodd" d="M135.33 21.0309L135.09 20.3809L134.94 19.9609L134.79 20.3809L134.55 21.0309L133.82 21.0509H133.32L133.73 21.3509L134.3 21.7609L134.09 22.4109L133.95 22.8509L134.34 22.6009L134.94 22.2009L135.54 22.6009L135.92 22.8509L135.78 22.4109L135.58 21.7609L136.15 21.3509L136.55 21.0509H136.06L135.33 21.0309Z" fill="#3D3D3B"/>
<path fill-rule="evenodd" clip-rule="evenodd" d="M131.58 24.7397L131.34 24.0897L131.19 23.6797L131.04 24.0897L130.8 24.7397L130.07 24.7597L129.58 24.7697L129.98 25.0597L130.55 25.4697L130.35 26.1197L130.21 26.5697L130.59 26.3097L131.19 25.9197L131.79 26.3097L132.18 26.5697L132.04 26.1197L131.83 25.4697L132.4 25.0597L132.81 24.7697L132.31 24.7597L131.58 24.7397Z" fill="#3D3D3B"/>
<path fill-rule="evenodd" clip-rule="evenodd" d="M126.43 26.0993L126.19 25.4493L126.03 25.0293L125.88 25.4493L125.64 26.0993L124.91 26.1093L124.42 26.1193L124.82 26.4193L125.4 26.8293L125.19 27.4793L125.05 27.9193L125.43 27.6693L126.03 27.2693L126.64 27.6693L127.02 27.9193L126.88 27.4793L126.67 26.8293L127.25 26.4193L127.65 26.1193L127.16 26.1093L126.43 26.0993Z" fill="#3D3D3B"/>
<path fill-rule="evenodd" clip-rule="evenodd" d="M121.23 24.7204L120.99 24.0704L120.84 23.6504L120.68 24.0704L120.45 24.7204L119.72 24.7304L119.22 24.7404L119.63 25.0304L120.2 25.4504L119.99 26.1004L119.85 26.5404L120.23 26.2904L120.84 25.8904L121.44 26.2904L121.83 26.5404L121.68 26.1004L121.48 25.4504L122.05 25.0304L122.45 24.7404L121.96 24.7304L121.23 24.7204Z" fill="#3D3D3B"/>
<path fill-rule="evenodd" clip-rule="evenodd" d="M117.5 20.9899L117.26 20.3399L117.11 19.9199L116.96 20.3399L116.72 20.9899L115.99 20.9999L115.5 21.0099L115.9 21.2999L116.47 21.7199L116.27 22.3699L116.12 22.8099L116.51 22.5599L117.11 22.1599L117.71 22.5599L118.1 22.8099L117.96 22.3699L117.75 21.7199L118.32 21.2999L118.73 21.0099L118.23 20.9999L117.5 20.9899Z" fill="#3D3D3B"/>
<path fill-rule="evenodd" clip-rule="evenodd" d="M116.33 17.4503L116.72 17.7103L116.57 17.2603L116.37 16.6103L116.94 16.2003L117.34 15.9103L116.85 15.9003L116.12 15.8903L115.88 15.2403L115.73 14.8203L115.58 15.2403L115.34 15.8903L114.61 15.9003L114.11 15.9103L114.51 16.2003L115.09 16.6103L114.88 17.2603L114.74 17.7103L115.13 17.4503L115.73 17.0503L116.33 17.4503Z" fill="#3D3D3B"/>
<path fill-rule="evenodd" clip-rule="evenodd" d="M117.52 10.7204L117.29 10.0704L117.13 9.65039L116.98 10.0704L116.74 10.7204L116.01 10.7304L115.52 10.7404L115.92 11.0304L116.49 11.4504L116.29 12.1004L116.15 12.5404L116.53 12.2904L117.13 11.8904L117.73 12.2904L118.12 12.5404L117.98 12.1004L117.77 11.4504L118.35 11.0304L118.75 10.7404L118.25 10.7304L117.52 10.7204Z" fill="#3D3D3B"/>
<path fill-rule="evenodd" clip-rule="evenodd" d="M121.27 7.01922L121.04 6.36922L120.88 5.94922L120.73 6.36922L120.49 7.01922L119.76 7.02922L119.27 7.03922L119.67 7.32922L120.24 7.74922L120.04 8.39922L119.9 8.83922L120.28 8.58922L120.88 8.18922L121.48 8.58922L121.87 8.83922L121.73 8.39922L121.52 7.74922L122.1 7.32922L122.5 7.03922L122 7.02922L121.27 7.01922Z" fill="#3D3D3B"/>
</g>
<defs>
<clipPath id="clip0_615_4023">
<rect width="149.45" height="32.5" fill="white" transform="translate(0.549805)"/>
</clipPath>
</defs>
</svg>
