<svg width="1921" height="642" viewBox="0 0 1921 642" fill="none" xmlns="http://www.w3.org/2000/svg">
<path d="M331.914 637.062H967C963.742 288.426 680.981 6.66297 331.914 4.93848V637.062Z" stroke="#9D76E5" stroke-width="8"/>
<path d="M659.828 637.061C659.828 455.982 512.994 309.147 331.914 309.147V637.061H659.828Z" stroke="#28BE7F" stroke-width="8"/>
<path d="M331.914 309.147C150.834 309.147 4.00001 455.982 4.00001 637.061L331.914 637.061L331.914 309.147Z" stroke="#F96E99" stroke-width="8"/>
<path d="M484.018 157.043C484.018 73.0836 415.968 4.93848 331.913 4.93848V309.148C415.872 309.148 484.018 241.098 484.018 157.043Z" stroke="#FF9880" stroke-width="8"/>
<path d="M179.809 157.043C179.809 241.002 247.858 309.147 331.913 309.147L331.913 4.93822C247.954 4.93823 179.809 72.9875 179.809 157.043Z" stroke="#E8DD79" stroke-width="8"/>
<mask id="path-6-outside-1_699_3834" maskUnits="userSpaceOnUse" x="1472" y="1" width="449" height="462" fill="black">
<rect fill="white" x="1472" y="1" width="449" height="462"/>
<path fill-rule="evenodd" clip-rule="evenodd" d="M1912.12 9H1480V184.425H1912.12V9ZM1480 184.425C1480 333.284 1600.71 454.004 1749.56 454.004C1810.55 454.004 1866.93 433.605 1912.12 399.398V184.425L1480 184.425Z"/>
</mask>
<path d="M1480 9V1H1472V9H1480ZM1912.12 9H1920.12V1H1912.12V9ZM1480 184.425H1472V192.425H1480V184.425ZM1912.12 184.425V192.425H1920.12V184.425H1912.12ZM1480 184.425L1480 176.425H1472L1472 184.425H1480ZM1912.12 399.398L1916.95 405.776L1920.12 403.375V399.398H1912.12ZM1912.12 184.425H1920.12V176.425H1912.12V184.425ZM1480 17H1912.12V1H1480V17ZM1488 184.425V9H1472V184.425H1488ZM1912.12 176.425H1480V192.425H1912.12V176.425ZM1904.12 9V184.425H1920.12V9H1904.12ZM1749.56 446.004C1605.13 446.004 1488 328.866 1488 184.425H1472C1472 337.702 1596.29 462.004 1749.56 462.004V446.004ZM1907.29 393.019C1863.44 426.216 1808.74 446.004 1749.56 446.004V462.004C1812.36 462.004 1870.42 440.994 1916.95 405.776L1907.29 393.019ZM1904.12 184.425V399.398H1920.12V184.425H1904.12ZM1480 192.425L1912.12 192.425V176.425L1480 176.425L1480 192.425Z" fill="#9D76E5" mask="url(#path-6-outside-1_699_3834)"/>
</svg>
