<svg width="1920" height="640" viewBox="0 0 1920 640" fill="none" xmlns="http://www.w3.org/2000/svg">
<path d="M332 640H975C971.702 287.02 685.417 1.74598 332 0V640Z" fill="#9D76E5"/>
<path d="M664 640C664 456.664 515.336 308 332 308V640H664Z" fill="#28BE7F"/>
<path d="M332 308C148.664 308 6.49831e-06 456.664 1.45122e-05 640L332 640L332 308Z" fill="#F96E99"/>
<path d="M486 154C486 68.9943 417.103 0 332 0V308C417.006 308 486 239.103 486 154Z" fill="#FF9880"/>
<path d="M178 154C178 239.006 246.897 308 332 308L332 -1.34631e-05C246.994 -6.03168e-06 178 68.8973 178 154Z" fill="#E8DD79"/>
<path fill-rule="evenodd" clip-rule="evenodd" d="M1920 0.00390625H1484V177.004C1484 327.2 1605.8 449.004 1755.99 449.004C1817.52 449.004 1874.41 428.422 1920 393.907V177.004V0.00390625Z" fill="#9D76E5"/>
</svg>
