<svg width="1920" height="641" viewBox="0 0 1920 641" fill="none" xmlns="http://www.w3.org/2000/svg">
<path d="M1181.02 637H546C549.258 288.399 831.991 6.6628 1181.02 4.93848V637Z" stroke="#9D76E5" stroke-width="8"/>
<path d="M853.143 637C853.143 455.938 999.962 309.118 1181.02 309.118V637H853.143Z" stroke="#28BE7F" stroke-width="8"/>
<path d="M1181.02 309.118C1362.09 309.118 1508.91 455.938 1508.91 637L1181.02 637L1181.02 309.118Z" stroke="#FF9880" stroke-width="8"/>
<path d="M1028.93 157.028C1028.93 73.077 1096.98 4.93848 1181.02 4.93848V309.118C1097.07 309.118 1028.93 241.075 1028.93 157.028Z" stroke="#FF9880" stroke-width="8"/>
<path d="M1333.11 157.028C1333.11 240.98 1265.07 309.118 1181.02 309.118L1181.02 4.93853C1264.98 4.93854 1333.11 72.9812 1333.11 157.028Z" stroke="#E8DD79" stroke-width="8"/>
<mask id="path-6-inside-1_709_3528" fill="white">
<path fill-rule="evenodd" clip-rule="evenodd" d="M1920 1.00391H1484V178.004C1484 328.2 1605.8 450.004 1755.99 450.004C1817.52 450.004 1874.41 429.422 1920 394.907V178.004V1.00391Z"/>
</mask>
<path d="M1484 1.00391V-6.99609H1476V1.00391H1484ZM1920 1.00391H1928V-6.99609H1920V1.00391ZM1484 178.004H1492H1484ZM1920 394.907L1924.83 401.286L1928 398.885V394.907H1920ZM1484 9.00391H1920V-6.99609H1484V9.00391ZM1492 178.004V1.00391H1476V178.004H1492ZM1755.99 442.004C1610.22 442.004 1492 323.782 1492 178.004H1476C1476 332.618 1601.38 458.004 1755.99 458.004V442.004ZM1915.17 388.529C1870.91 422.033 1815.71 442.004 1755.99 442.004V458.004C1819.33 458.004 1877.9 436.811 1924.83 401.286L1915.17 388.529ZM1912 178.004V394.907H1928V178.004H1912ZM1912 1.00391V178.004H1928V1.00391H1912Z" fill="#F96E99" mask="url(#path-6-inside-1_709_3528)"/>
</svg>
