<svg width="1920" height="640" viewBox="0 0 1920 640" fill="none" xmlns="http://www.w3.org/2000/svg">
<path d="M1189 0H0V640H1189V0Z" fill="#F96E99"/>
<path d="M1920 0H1189V640H1920V0Z" fill="#FF9880"/>
<path d="M1189 640H546C549.298 287.02 835.583 1.74598 1189 0V640Z" fill="#9D76E5"/>
<path d="M857 640C857 456.664 1005.66 308 1189 308V640H857Z" fill="#28BE7F"/>
<path d="M1189 308C1372.34 308 1521 456.664 1521 640L1189 640L1189 308Z" fill="#F96E99"/>
<path d="M1035 154C1035 68.9943 1103.9 0 1189 0V308C1103.99 308 1035 239.103 1035 154Z" fill="#FF9880"/>
<path d="M1343 154C1343 239.006 1274.1 308 1189 308L1189 -1.34631e-05C1274.01 -6.03168e-06 1343 68.8973 1343 154Z" fill="#E8DD79"/>
<path fill-rule="evenodd" clip-rule="evenodd" d="M1920 0.00390625H1484V177.004C1484 327.2 1605.8 449.004 1755.99 449.004C1817.52 449.004 1874.41 428.422 1920 393.907V177.004V0.00390625Z" fill="#9D76E5"/>
</svg>
