<svg width="1920" height="12" viewBox="0 0 1920 12" fill="none" xmlns="http://www.w3.org/2000/svg">
<mask id="mask0_745_3603" style="mask-type:luminance" maskUnits="userSpaceOnUse" x="0" y="0" width="1920" height="12">
<path d="M1920 0H0V12H1920V0Z" fill="white"/>
</mask>
<g mask="url(#mask0_745_3603)">
<path d="M865.36 -384.465H0V1118.76H865.36V-384.465Z" fill="#E8DD79"/>
<path d="M1920 -384.465H865.37V1118.76H1920V-384.465Z" fill="#9D76E5"/>
<path d="M1920 1118.76C1888.4 283.606 1428.85 -379.529 865.36 -383.564V1118.76H1920Z" fill="#FF9880"/>
<path d="M1117.42 -3.10483C1117.42 -213.735 1004.57 -384.465 865.36 -384.465V378.24C1004.57 378.24 1117.42 207.51 1117.42 -3.11984V-3.10483Z" fill="#28BE7F"/>
<path d="M361.24 -377.685C361.24 -379.95 361.29 -382.2 361.3 -384.465H865.36V378.465C586.94 378.465 361.24 39.9452 361.24 -377.7V-377.685Z" fill="#F96E99"/>
</g>
</svg>
