<svg width="151" height="80" viewBox="0 0 151 80" fill="none" xmlns="http://www.w3.org/2000/svg">
<g clip-path="url(#clip0_615_3442)">
<path d="M16.4019 0C7.34975 0 0.0126953 7.35673 0.0126953 16.4331C0.0126953 25.5095 7.34975 32.8663 16.4019 32.8663H32.7911V0H16.4019Z" fill="#28BE7F"/>
<path d="M45.9614 47.1328C36.9093 47.1328 29.5723 54.4927 29.5723 63.5659C29.5723 72.6391 36.9093 79.9991 45.9614 79.9991H62.3506V47.1328H45.9614Z" fill="#9D76E5"/>
<path d="M49.1802 14.2539H32.791V47.1202H49.1802C58.2323 47.1202 65.5694 39.7634 65.5694 30.687C65.5694 21.6106 58.2323 14.2539 49.1802 14.2539Z" fill="#F96E99"/>
<path d="M0 32.875V49.3049C0 58.3813 7.34026 65.738 16.3892 65.738C25.4381 65.738 32.7784 58.3813 32.7784 49.3049V32.875H0Z" fill="#FF9880"/>
<path d="M14.4243 20.4473H20.1455V18.9458H16.3346V16.8283H19.2304V15.4262H16.3346V13.4371H19.9535V11.9355H14.4243V20.4473Z" fill="white"/>
<path d="M16.6707 53.0951C18.9618 53.0951 20.2545 51.892 20.2545 49.5724V44.4551H18.3186V49.4537C18.3186 51.0129 17.8194 51.5616 16.6803 51.5616C15.5412 51.5616 15.1028 50.9456 15.1028 49.5275V44.4551H13.167V49.643C13.167 51.9048 14.4373 53.0951 16.6675 53.0951" fill="white"/>
<path d="M45.104 35.2299H47.8686C50.8476 35.2299 52.3323 33.5295 52.3323 30.9821V30.889C52.3323 28.3416 50.8604 26.7246 47.8814 26.7246H45.104V35.2331V35.2299ZM47.0271 33.7316V28.2229H47.7886C49.5805 28.2229 50.3292 29.1597 50.3292 30.9115V31.0077C50.3292 32.7691 49.5229 33.7348 47.8142 33.7348H47.0303L47.0271 33.7316Z" fill="white"/>
<path d="M48.9242 67.5509C51.0136 67.5509 52.5207 66.4665 52.7351 64.3618H50.8473C50.6937 65.4559 49.9545 65.9916 48.8986 65.9916C47.4971 65.9916 46.6908 64.9682 46.6908 63.2068V63.1138C46.6908 61.3524 47.5451 60.3033 48.8858 60.3033C49.9545 60.3033 50.5241 60.8519 50.6681 61.8753H52.6391C52.4375 59.7803 50.9176 58.7793 48.8762 58.7793C46.4668 58.7793 44.6621 60.5407 44.6621 63.1234V63.2164C44.6621 65.8344 46.1468 67.5477 48.9242 67.5477" fill="white"/>
<path d="M81.3701 24.531H88.0032V22.792H83.5844V20.3345H86.9441V18.7046H83.5844V16.401H87.7824V14.6621H81.3701V24.5278V24.531ZM91.7501 24.6818C92.9341 24.6818 93.6636 24.1299 94.0348 23.3984V24.531H96.0154V17.3154H94.0348V21.5504C94.0348 22.6156 93.3724 23.1385 92.5341 23.1385C91.6958 23.1385 91.283 22.6701 91.283 21.6916V17.3154H89.3023V21.9643C89.3023 23.8572 90.3486 24.6818 91.7533 24.6818M97.7817 24.531H99.7783V20.9152C99.7783 19.5356 100.633 19.0543 102.105 19.0672V17.2063C100.937 17.2192 100.233 17.7293 99.7783 18.695V17.3154H97.7817V24.531ZM106.635 24.6818C108.795 24.6818 110.434 23.2348 110.434 20.9569V20.8478C110.434 18.5987 108.808 17.1486 106.648 17.1486C104.488 17.1486 102.85 18.6244 102.85 20.8895V20.9986C102.85 23.2476 104.488 24.6818 106.635 24.6818ZM106.648 23.1674C105.519 23.1674 104.888 22.3397 104.888 20.9601V20.851C104.888 19.4714 105.548 18.6693 106.648 18.6693C107.749 18.6693 108.411 19.4971 108.411 20.8767V20.9729C108.411 22.3397 107.765 23.1674 106.648 23.1674ZM111.774 26.9886H113.771V23.4273C114.142 24.1331 114.955 24.6818 116.068 24.6818C117.857 24.6818 119.207 23.3439 119.207 20.9569V20.8478C119.207 18.4576 117.831 17.1486 116.068 17.1486C115.009 17.1486 114.168 17.7582 113.771 18.4447V17.3122H111.774V26.9853V26.9886ZM115.473 23.1257C114.385 23.1257 113.697 22.4231 113.697 20.9729V20.8638C113.697 19.4137 114.411 18.6822 115.457 18.6822C116.504 18.6822 117.179 19.4008 117.179 20.8638V20.9729C117.179 22.3782 116.571 23.1257 115.47 23.1257M123.86 24.6818C125.828 24.6818 127.069 23.8123 127.3 22.253H125.415C125.29 22.8594 124.836 23.2605 123.914 23.2605C122.826 23.2605 122.18 22.5707 122.125 21.3675H127.316V20.8157C127.316 18.2362 125.664 17.1454 123.805 17.1454C121.713 17.1454 120.103 18.6212 120.103 20.8991V21.0082C120.103 23.3118 121.687 24.6786 123.86 24.6786M122.154 20.1452C122.305 19.1249 122.913 18.5314 123.805 18.5314C124.756 18.5314 125.306 19.0575 125.376 20.1452H122.154ZM130.637 24.6818C131.766 24.6818 132.4 24.239 132.813 23.6615V24.531H134.755V19.8243C134.755 17.864 133.501 17.1454 131.741 17.1454C129.981 17.1454 128.631 17.9025 128.509 19.6158H130.394C130.477 18.9934 130.835 18.5955 131.619 18.5955C132.528 18.5955 132.79 19.064 132.79 19.9206V20.2093H131.978C129.776 20.2093 128.234 20.8446 128.234 22.529C128.234 24.0465 129.335 24.6818 130.643 24.6818M131.229 23.2893C130.499 23.2893 130.182 22.9428 130.182 22.4199C130.182 21.6467 130.854 21.3996 132.013 21.3996H132.784V22.006C132.784 22.8049 132.109 23.2893 131.229 23.2893ZM136.46 24.531H138.457V20.3633C138.457 19.3014 139.103 18.7784 139.958 18.7784C140.812 18.7784 141.225 19.2468 141.225 20.2254V24.531H143.222V19.9366C143.222 18.0052 142.217 17.1486 140.799 17.1486C139.603 17.1486 138.819 17.7421 138.46 18.4576V17.3154H136.464V24.531H136.46Z" fill="#3D3D3B"/>
<path d="M81.3701 41.0994H84.5763C88.0288 41.0994 89.7503 39.1263 89.7503 36.1746V36.0655C89.7503 33.1106 88.0448 31.237 84.5891 31.237H81.3701V41.1026V41.0994ZM83.6003 39.3605V32.9727H84.4803C86.5569 32.9727 87.4241 34.0635 87.4241 36.0912V36.2003C87.4241 38.244 86.4865 39.3605 84.5059 39.3605H83.5972H83.6003ZM92.2205 32.9021C92.8669 32.9021 93.3628 32.4337 93.3628 31.8112C93.3628 31.1888 92.8669 30.7204 92.2205 30.7204C91.5742 30.7204 91.091 31.1888 91.091 31.8112C91.091 32.4337 91.587 32.9021 92.2205 32.9021ZM91.2414 41.0994H93.222V33.8838H91.2414V41.0994ZM98.2489 43.7655C100.617 43.7655 102.034 42.6747 102.05 40.5347V33.8838H100.07V34.9586C99.6568 34.2271 98.9528 33.717 97.7849 33.717C95.9962 33.717 94.6203 35.1672 94.6203 37.2366V37.336C94.6203 39.4728 96.0122 40.785 97.7593 40.785C98.8184 40.785 99.6728 40.1497 100.073 39.4439V40.5347C100.073 41.6673 99.468 42.2993 98.2553 42.2993C97.2377 42.2993 96.7834 41.8854 96.6586 41.2502H94.6747C94.8667 42.7421 95.929 43.7623 98.2521 43.7623M98.3449 39.2803C97.3529 39.2803 96.6522 38.5327 96.6522 37.336V37.2269C96.6522 36.0398 97.2697 35.241 98.3865 35.241C99.5032 35.241 100.121 35.9853 100.121 37.2141V37.3103C100.121 38.5391 99.3912 39.2835 98.3449 39.2835M104.847 32.9021C105.493 32.9021 105.989 32.4337 105.989 31.8112C105.989 31.1888 105.493 30.7204 104.847 30.7204C104.2 30.7204 103.72 31.1888 103.72 31.8112C103.72 32.4337 104.216 32.9021 104.847 32.9021ZM103.871 41.0994H105.851V33.8838H103.871V41.0994ZM110.312 41.2406C110.85 41.2406 111.246 41.1443 111.521 41.0449V39.5016C111.288 39.5979 111.067 39.6396 110.766 39.6396C110.258 39.6396 109.97 39.3637 109.97 38.783V35.3051H111.483V33.8838H109.97V32.3246H107.986V33.8838H107.064V35.3051H107.986V38.9626C107.986 40.4674 108.798 41.2406 110.312 41.2406ZM114.856 41.2502C115.985 41.2502 116.619 40.8074 117.031 40.2299V41.0994H118.974V36.3928C118.974 34.4325 117.723 33.7138 115.96 33.7138C114.196 33.7138 112.849 34.4742 112.725 36.1842H114.609C114.692 35.5618 115.051 35.164 115.835 35.164C116.743 35.164 117.006 35.6324 117.006 36.489V36.7778H116.193C113.992 36.7778 112.449 37.413 112.449 39.0974C112.449 40.6149 113.55 41.2502 114.859 41.2502M115.448 39.8578C114.718 39.8578 114.401 39.5113 114.401 38.9883C114.401 38.2151 115.073 37.9681 116.232 37.9681H117.003V38.5776C117.003 39.3765 116.328 39.861 115.448 39.861M120.737 41.0994H122.717V30.6113H120.737V41.0994Z" fill="#3D3D3B"/>
<path d="M85.3471 57.8208C88.0029 57.8208 89.5036 56.4284 89.5036 53.7366V47.8044H87.2606V53.5986C87.2606 55.4049 86.6814 56.0402 85.3599 56.0402C84.0384 56.0402 83.5297 55.3215 83.5297 53.6788V47.8011H81.2866V53.8168C81.2866 56.438 82.7585 57.8176 85.3471 57.8176M91.2987 57.6668H93.2953V53.4992C93.2953 52.4372 93.9417 51.911 94.7928 51.911C95.644 51.911 96.0599 52.3794 96.0599 53.358V57.6636H98.0566V53.0692C98.0566 51.1378 97.0519 50.2844 95.6344 50.2844C94.4376 50.2844 93.6505 50.8779 93.2953 51.5966V50.448H91.2987V57.6636V57.6668ZM100.799 49.4727C101.445 49.4727 101.941 49.0043 101.941 48.3819C101.941 47.7594 101.445 47.291 100.799 47.291C100.152 47.291 99.6693 47.7594 99.6693 48.3819C99.6693 49.0043 100.165 49.4727 100.799 49.4727ZM99.8196 57.6668H101.804V50.4512H99.8196V57.6668ZM105.576 57.6668H107.819L110.433 50.4512H108.507L106.802 55.6135L105.08 50.4512H102.946L105.573 57.6668H105.576ZM114.51 57.8208C116.478 57.8208 117.716 56.9513 117.95 55.3921H116.065C115.94 55.9985 115.486 56.3995 114.564 56.3995C113.476 56.3995 112.83 55.7129 112.775 54.5098H117.962V53.9579C117.962 51.3752 116.311 50.2876 114.452 50.2876C112.36 50.2876 110.75 51.7634 110.75 54.0414V54.1505C110.75 56.454 112.331 57.8208 114.507 57.8208M112.804 53.281C112.955 52.2575 113.559 51.6672 114.455 51.6672C115.406 51.6672 115.956 52.1902 116.023 53.281H112.804ZM119.277 57.6668H121.271V54.051C121.271 52.6714 122.125 52.1869 123.597 52.203V50.3389C122.429 50.3518 121.725 50.8651 121.271 51.8276V50.448H119.277V57.6636V57.6668ZM129.52 57.8208C131.942 57.8208 133.689 56.5663 133.939 54.1216H131.75C131.571 55.3921 130.717 56.0113 129.494 56.0113C127.872 56.0113 126.934 54.8242 126.934 52.7805V52.6714C126.934 50.6309 127.923 49.4149 129.481 49.4149C130.72 49.4149 131.382 50.0502 131.545 51.2373H133.83C133.596 48.8086 131.833 47.6504 129.465 47.6504C126.672 47.6504 124.579 49.6909 124.579 52.6874V52.7965C124.579 55.8316 126.301 57.8176 129.52 57.8176M136.239 49.4727C136.886 49.4727 137.382 49.0043 137.382 48.3819C137.382 47.7594 136.886 47.291 136.239 47.291C135.593 47.291 135.11 47.7594 135.11 48.3819C135.11 49.0043 135.606 49.4727 136.239 49.4727ZM135.263 57.6668H137.247V50.4512H135.263V57.6668ZM141.708 57.8048C142.245 57.8048 142.642 57.7085 142.917 57.6123V56.0658C142.684 56.1653 142.463 56.2038 142.159 56.2038C141.65 56.2038 141.362 55.9279 141.362 55.3472V51.8725H142.876V50.4512H141.362V48.892H139.382V50.4512H138.46V51.8725H139.382V55.53C139.382 57.0348 140.194 57.808 141.708 57.808M145.176 60.1244H147.103L150.997 50.4512H149.083L147.474 54.7857L145.727 50.4512H143.58L146.443 56.9385L145.179 60.1244H145.176Z" fill="#3D3D3B"/>
</g>
<defs>
<clipPath id="clip0_615_3442">
<rect width="151" height="80" fill="white"/>
</clipPath>
</defs>
</svg>
