<svg width="592" height="592" viewBox="0 0 592 592" fill="none" xmlns="http://www.w3.org/2000/svg">
<path d="M295.56 0H-0.00195312V592H295.56V0Z" fill="#28BE7F"/>
<path d="M147.782 592C229.336 592 295.448 526.03 295.448 444.651C295.448 363.272 229.336 297.302 147.782 297.302C66.2278 297.302 0.115234 363.272 0.115234 444.651C0.115234 526.03 66.2278 592 147.782 592Z" fill="#FF9880"/>
<path d="M-0.00195312 0V150.011C-0.00195312 231.359 66.1619 297.301 147.774 297.301C229.386 297.301 295.55 231.359 295.55 150.011V0H-0.00195312Z" fill="#9D76E5"/>
<path fill-rule="evenodd" clip-rule="evenodd" d="M295.56 0H591.998V592H295.56V575.384C449.617 575.081 574.403 450.107 574.403 295.979C574.403 141.851 449.608 16.8778 295.56 16.5748V0Z" fill="#F96E99"/>
</svg>
