<svg width="592" height="592" viewBox="0 0 592 592" fill="none" xmlns="http://www.w3.org/2000/svg">
<path d="M592 0H295.562V592H592V0Z" fill="#28BE7F"/>
<path d="M574.405 295.991C574.405 141.675 449.306 16.5859 295 16.5859V575.396C449.315 575.396 574.405 450.306 574.405 295.991Z" fill="#FF9880"/>
<path d="M295.562 0H0V592H295.562V0Z" fill="#9D76E5"/>
<path d="M147.784 592C229.338 592 295.45 526.03 295.45 444.651C295.45 363.272 229.338 297.302 147.784 297.302C66.2298 297.302 0.117188 363.272 0.117188 444.651C0.117188 526.03 66.2298 592 147.784 592Z" fill="#E8DD79"/>
<path d="M0 0V150.011C0 231.359 66.1638 297.301 147.776 297.301C229.388 297.301 295.552 231.359 295.552 150.011V0H0Z" fill="#F96E99"/>
</svg>
