<svg width="592" height="592" viewBox="0 0 592 592" fill="none" xmlns="http://www.w3.org/2000/svg">
<path d="M591.999 0H295.561V592H591.999V0Z" fill="#FF9880"/>
<path d="M574.404 295.991C574.404 141.675 449.305 16.5859 294.999 16.5859V575.396C449.314 575.396 574.404 450.306 574.404 295.991Z" fill="#E8DD79"/>
<path d="M295.561 0H-0.000976562V592H295.561V0Z" fill="#F96E99"/>
<path d="M147.783 592C229.337 592 295.449 526.03 295.449 444.651C295.449 363.272 229.337 297.302 147.783 297.302C66.2288 297.302 0.116211 363.272 0.116211 444.651C0.116211 526.03 66.2288 592 147.783 592Z" fill="#9D76E5"/>
<path d="M-0.000976562 0V150.011C-0.000976562 231.359 66.1628 297.301 147.775 297.301C229.387 297.301 295.551 231.359 295.551 150.011V0H-0.000976562Z" fill="#28BE7F"/>
</svg>
