<svg width="592" height="592" viewBox="0 0 592 592" fill="none" xmlns="http://www.w3.org/2000/svg">
<path d="M295.559 0H-0.00292969V592H295.559V0Z" fill="#F96E99"/>
<path d="M147.781 591.999C229.335 591.999 295.448 526.029 295.448 444.65C295.448 363.271 229.335 297.301 147.781 297.301C66.2269 297.301 0.114258 363.271 0.114258 444.65C0.114258 526.029 66.2269 591.999 147.781 591.999Z" fill="#9D76E5"/>
<path d="M-0.00292969 0V150.011C-0.00292969 231.359 66.1609 297.301 147.773 297.301C229.385 297.301 295.549 231.359 295.549 150.011V0H-0.00292969Z" fill="#FF9880"/>
<path fill-rule="evenodd" clip-rule="evenodd" d="M295.559 0H591.997V592H295.559V575.384C449.616 575.081 574.402 450.107 574.402 295.979C574.402 141.851 449.607 16.8778 295.559 16.5748V0Z" fill="#28BE7F"/>
</svg>
