<svg width="592" height="592" viewBox="0 0 592 592" fill="none" xmlns="http://www.w3.org/2000/svg">
<path d="M295.558 0H-0.00390625V592H295.558V0Z" fill="#FF9880"/>
<path d="M147.78 592C229.334 592 295.447 526.03 295.447 444.651C295.447 363.272 229.334 297.302 147.78 297.302C66.2259 297.302 0.113281 363.272 0.113281 444.651C0.113281 526.03 66.2259 592 147.78 592Z" fill="#F96E99"/>
<path d="M-0.00390625 0V150.011C-0.00390625 231.359 66.1599 297.301 147.772 297.301C229.385 297.301 295.548 231.359 295.548 150.011V0H-0.00390625Z" fill="#28BE7F"/>
<path fill-rule="evenodd" clip-rule="evenodd" d="M295.558 0H591.996V592H295.558V575.384C449.615 575.081 574.401 450.107 574.401 295.979C574.401 141.851 449.606 16.8778 295.558 16.5748V0Z" fill="#9D76E5"/>
</svg>
