<svg width="592" height="592" viewBox="0 0 592 592" fill="none" xmlns="http://www.w3.org/2000/svg">
<path d="M591.998 0H295.56V592H591.998V0Z" fill="#9D76E5"/>
<path d="M574.403 295.991C574.403 141.675 449.304 16.5859 294.998 16.5859V575.396C449.314 575.396 574.403 450.306 574.403 295.991Z" fill="#F96E99"/>
<path d="M295.56 0H-0.00195312V592H295.56V0Z" fill="#FF9880"/>
<path d="M147.781 592C229.335 592 295.448 526.03 295.448 444.651C295.448 363.272 229.335 297.302 147.781 297.302C66.2269 297.302 0.114258 363.272 0.114258 444.651C0.114258 526.03 66.2269 592 147.781 592Z" fill="#28BE7F"/>
<path d="M-0.00195312 0V150.011C-0.00195312 231.359 66.1619 297.301 147.774 297.301C229.386 297.301 295.55 231.359 295.55 150.011V0H-0.00195312Z" fill="#E8DD79"/>
</svg>
