<svg width="1920" height="1080" viewBox="0 0 1920 1080" fill="none" xmlns="http://www.w3.org/2000/svg">
<path d="M543 0H0V1080H543V0Z" fill="#F96E99"/>
<path d="M1919.33 0H543.325V1080H1919.33V0Z" fill="#E8DD79"/>
<path d="M1680.37 1080C1646.3 480.18 1150.87 3.90091 543.366 1V1080H1680.37Z" fill="#9D76E5"/>
<path d="M1128.37 1080C1100.67 781.618 849.372 548 543.366 548V1080H1128.37Z" fill="#28BE7F"/>
<path d="M815.366 274C815.366 122.667 693.592 0 543.366 0V548C693.592 548 815.366 425.333 815.366 274Z" fill="#FF9880"/>
<path d="M0.366211 4.86887C0.366211 3.24171 0.416637 1.62716 0.429247 0H543.366V548C243.468 548 0.366211 304.847 0.366211 4.86887Z" fill="#9D76E5"/>
</svg>
