<svg width="1919" height="1080" viewBox="0 0 1919 1080" fill="none" xmlns="http://www.w3.org/2000/svg">
<path d="M0 0L0 1080H577L577 0H0Z" fill="#F96E99"/>
<path d="M577 0L577 1080H1919V0H577Z" fill="#E8DD79"/>
<path d="M577 1080H1680C1674.36 484.922 1183.22 3.86897 577 1V1080Z" fill="#9D76E5"/>
<path d="M1152 1080C1152 765.74 893.679 511 575 511V1080H1152Z" fill="#28BE7F"/>
<path d="M0 1080C0 765.74 258.321 511 577 511V1080H0Z" fill="#9D76E5"/>
<path d="M832 255.533C832 114.431 717.873 0 577 0V511C717.807 511 832 396.634 832 255.467V255.533Z" fill="#F96E99"/>
<path d="M322 255.467C322 396.569 436.127 511 577 511L577 3.05176e-05C436.193 1.82078e-05 322 114.366 322 255.533L322 255.467Z" fill="#FF9880"/>
</svg>
