<svg width="1921" height="1081" viewBox="0 0 1921 1081" fill="none" xmlns="http://www.w3.org/2000/svg">
<path d="M577.427 1077H1672.98C1667.38 485.703 1179.55 7.70621 577.427 4.85547V1077Z" stroke="#9D76E5" stroke-width="8"/>
<path d="M1148.54 1077C1148.54 765.026 892.856 512.139 577.427 512.139V1077H1148.54Z" stroke="#28BE7F" stroke-width="8"/>
<path d="M4.32521 1077C4.32521 765.026 260.901 512.139 577.427 512.139V1077H4.32521Z" stroke="#E8DD79" stroke-width="8"/>
<path d="M830.704 258.53C830.704 118.455 717.348 4.85547 577.427 4.85547V512.139C717.283 512.139 830.704 398.605 830.704 258.465V258.53Z" stroke="#F96E99" stroke-width="8"/>
<path d="M324.15 258.464C324.15 398.54 437.506 512.139 577.427 512.139L577.427 4.85532C437.571 4.85531 324.15 118.389 324.15 258.53L324.15 258.464Z" stroke="#FF9880" stroke-width="8"/>
</svg>
