<svg width="412" height="432" viewBox="0 0 412 432" fill="none" xmlns="http://www.w3.org/2000/svg">
<path d="M-1.88833e-05 3.05176e-05L0 432L412 432L412 1.25085e-05L-1.88833e-05 3.05176e-05Z" fill="#9D76E5"/>
<path d="M-1.15905e-05 1.25501e-05C229.032 12.9431 410.892 201.182 412 432L-3.05176e-05 432L-1.15905e-05 1.25501e-05Z" fill="#FF9880"/>
<path d="M-5.53238e-06 210C113.856 220.509 203 315.875 203 432L-1.52588e-05 432L-5.53238e-06 210Z" fill="#F96E99"/>
<path d="M307.5 329C365.217 329 412 375.113 412 432L203 432C203 375.113 249.783 329 307.5 329Z" fill="#28BE7F"/>
</svg>
