<svg width="848" height="320" viewBox="0 0 848 320" fill="none" xmlns="http://www.w3.org/2000/svg">
<path d="M-1.39876e-05 3.05176e-05L0 320L848 320L848 -6.54968e-06L-1.39876e-05 3.05176e-05Z" fill="#FF9880"/>
<path d="M1.402e-05 -1.33448e-05C170.107 9.58749 305.177 149.024 306 320L0 320L1.402e-05 -1.33448e-05Z" fill="#28BE7F"/>
<path d="M7.18527e-06 156C84.6911 163.764 151 234.214 151 320L0 320L7.18527e-06 156Z" fill="#9D76E5"/>
<path d="M228.5 244C271.304 244 306 278.025 306 320L151 320C151 278.025 185.696 244 228.5 244Z" fill="#F96E99"/>
</svg>
