<svg width="1920" height="376" viewBox="0 0 1920 376" fill="none" xmlns="http://www.w3.org/2000/svg">
<path d="M0 0H1920V376H0V0Z" fill="#FF9880"/>
<path d="M195 376H573C571.061 168.624 402.763 1.02577 195 0V376Z" fill="#28BE7F"/>
<path d="M390 376C390 268.318 302.682 181 195 181V376H390Z" fill="#9D76E5"/>
<path d="M195 181C87.3177 181 3.81678e-06 268.318 8.52372e-06 376L195 376L195 181Z" fill="#F96E99"/>
<path d="M286 90.5C286 40.5454 245.288 0 195 0V181C245.231 181 286 140.512 286 90.5Z" fill="#F96E99"/>
<path d="M105 90.5C105 140.455 145.265 181 195 181L195 7.39074e-06C145.321 1.17338e-05 105 40.4884 105 90.5Z" fill="#9D76E5"/>
<path fill-rule="evenodd" clip-rule="evenodd" d="M1920 0.00390625H1730.65V76.8733H1730.65C1730.65 142.102 1783.54 195 1848.77 195C1875.49 195 1900.2 186.061 1920 171.072V76.873H1920V0.00390625Z" fill="#28BE7F"/>
</svg>
