<svg width="220" height="52" viewBox="0 0 220 52" fill="none" xmlns="http://www.w3.org/2000/svg">
<rect x="0.5" y="0.5" width="219" height="51" rx="25.5" fill="#FAFAF8"/>
<rect x="0.5" y="0.5" width="219" height="51" rx="25.5" stroke="#3D3D3B"/>
<path d="M36 16H32.5C31.5717 16 30.6815 16.3687 30.0251 17.0251C29.3687 17.6815 29 18.5717 29 19.5C29 20.4283 29.3687 21.3185 30.0251 21.9749C30.6815 22.6313 31.5717 23 32.5 23M36 16V23M36 16H39.5C39.9596 16 40.4148 16.0905 40.8394 16.2664C41.264 16.4423 41.6499 16.7001 41.9749 17.0251C42.2999 17.3501 42.5577 17.736 42.7336 18.1606C42.9095 18.5852 43 19.0404 43 19.5C43 19.9596 42.9095 20.4148 42.7336 20.8394C42.5577 21.264 42.2999 21.6499 41.9749 21.9749C41.6499 22.2999 41.264 22.5577 40.8394 22.7336C40.4148 22.9095 39.9596 23 39.5 23M36 23H32.5M36 23H39.5M36 23V30M32.5 23C31.5717 23 30.6815 23.3687 30.0251 24.0251C29.3687 24.6815 29 25.5717 29 26.5C29 27.4283 29.3687 28.3185 30.0251 28.9749C30.6815 29.6313 31.5717 30 32.5 30M39.5 23C39.0404 23 38.5852 23.0905 38.1606 23.2664C37.736 23.4423 37.3501 23.7001 37.0251 24.0251C36.7001 24.3501 36.4423 24.736 36.2664 25.1606C36.0905 25.5852 36 26.0404 36 26.5C36 26.9596 36.0905 27.4148 36.2664 27.8394C36.4423 28.264 36.7001 28.6499 37.0251 28.9749C37.3501 29.2999 37.736 29.5577 38.1606 29.7336C38.5852 29.9095 39.0404 30 39.5 30C39.9596 30 40.4148 29.9095 40.8394 29.7336C41.264 29.5577 41.6499 29.2999 41.9749 28.9749C42.2999 28.6499 42.5577 28.264 42.7336 27.8394C42.9095 27.4148 43 26.9596 43 26.5C43 26.0404 42.9095 25.5852 42.7336 25.1606C42.5577 24.736 42.2999 24.3501 41.9749 24.0251C41.6499 23.7001 41.264 23.4423 40.8394 23.2664C40.4148 23.0905 39.9596 23 39.5 23ZM32.5 30C31.5717 30 30.6815 30.3687 30.0251 31.0251C29.3687 31.6815 29 32.5717 29 33.5C29 34.4283 29.3687 35.3185 30.0251 35.9749C30.6815 36.6313 31.5717 37 32.5 37C33.4283 37 34.3185 36.6313 34.9749 35.9749C35.6313 35.3185 36 34.4283 36 33.5V30M32.5 30H36" stroke="#3D3D3B" stroke-width="2" stroke-linecap="round" stroke-linejoin="round"/>
<path d="M57.4382 33V19.9091H65.5561V21.6094H59.4134V25.598H64.9744V27.2919H59.4134V33H57.4382ZM67.8317 33V23.1818H69.7429V33H67.8317ZM68.7969 21.6669C68.4645 21.6669 68.179 21.5561 67.9403 21.3345C67.706 21.1087 67.5888 20.8402 67.5888 20.5291C67.5888 20.2138 67.706 19.9453 67.9403 19.7237C68.179 19.4979 68.4645 19.3849 68.7969 19.3849C69.1293 19.3849 69.4126 19.4979 69.647 19.7237C69.8857 19.9453 70.005 20.2138 70.005 20.5291C70.005 20.8402 69.8857 21.1087 69.647 21.3345C69.4126 21.5561 69.1293 21.6669 68.7969 21.6669ZM76.4306 36.8864C75.6507 36.8864 74.9796 36.7841 74.4171 36.5795C73.8588 36.375 73.4029 36.1044 73.0492 35.7678C72.6955 35.4311 72.4313 35.0625 72.2566 34.6619L73.8993 33.9844C74.0144 34.1719 74.1678 34.37 74.3596 34.5788C74.5556 34.7919 74.8198 34.973 75.1522 35.1222C75.4888 35.2713 75.9213 35.3459 76.4498 35.3459C77.1742 35.3459 77.7729 35.169 78.2459 34.8153C78.7189 34.4659 78.9554 33.9077 78.9554 33.1406V31.2102H78.834C78.7189 31.419 78.5527 31.6513 78.3354 31.907C78.1223 32.1626 77.8283 32.3842 77.4533 32.5717C77.0783 32.7592 76.5904 32.853 75.9895 32.853C75.214 32.853 74.5151 32.6719 73.8929 32.3097C73.275 31.9432 72.785 31.4041 72.4228 30.6925C72.0648 29.9766 71.8858 29.0966 71.8858 28.0526C71.8858 27.0085 72.0627 26.1136 72.4164 25.3679C72.7743 24.6222 73.2644 24.0511 73.8865 23.6548C74.5087 23.2543 75.214 23.054 76.0023 23.054C76.6117 23.054 77.1039 23.1562 77.4789 23.3608C77.8539 23.5611 78.1458 23.7955 78.3546 24.0639C78.5676 24.3324 78.7317 24.5689 78.8468 24.7734H78.9874V23.1818H80.8603V33.2173C80.8603 34.0611 80.6642 34.7536 80.2722 35.2947C79.8801 35.8359 79.3496 36.2365 78.6806 36.4964C78.0158 36.7564 77.2658 36.8864 76.4306 36.8864ZM76.4114 31.2678C76.9611 31.2678 77.4256 31.1399 77.8049 30.8842C78.1884 30.6243 78.4782 30.2536 78.6742 29.772C78.8745 29.2862 78.9746 28.7045 78.9746 28.027C78.9746 27.3665 78.8766 26.7848 78.6806 26.282C78.4846 25.7791 78.1969 25.3871 77.8176 25.1058C77.4384 24.8203 76.9696 24.6776 76.4114 24.6776C75.8361 24.6776 75.3567 24.8267 74.9732 25.125C74.5897 25.419 74.2999 25.8196 74.1039 26.3267C73.9121 26.8338 73.8162 27.4006 73.8162 28.027C73.8162 28.6705 73.9142 29.2351 74.1103 29.7209C74.3063 30.2067 74.5961 30.5859 74.9796 30.8587C75.3674 31.1314 75.8446 31.2678 76.4114 31.2678ZM83.4235 33V23.1818H85.258V24.7798H85.3794C85.584 24.2386 85.9185 23.8168 86.383 23.5142C86.8475 23.2074 87.4036 23.054 88.0513 23.054C88.7076 23.054 89.2573 23.2074 89.7005 23.5142C90.1479 23.821 90.4782 24.2429 90.6912 24.7798H90.7935C91.0279 24.2557 91.4007 23.8381 91.9121 23.527C92.4235 23.2116 93.0328 23.054 93.7402 23.054C94.6309 23.054 95.3574 23.3331 95.9199 23.8913C96.4867 24.4496 96.7701 25.2912 96.7701 26.4162V33H94.8588V26.5952C94.8588 25.9304 94.6777 25.4489 94.3155 25.1506C93.9533 24.8523 93.5208 24.7031 93.0179 24.7031C92.3958 24.7031 91.9121 24.8949 91.5669 25.2784C91.2218 25.6577 91.0492 26.1456 91.0492 26.7422V33H89.1444V26.4737C89.1444 25.9411 88.9782 25.5128 88.6458 25.1889C88.3134 24.8651 87.8809 24.7031 87.3482 24.7031C86.986 24.7031 86.6515 24.799 86.3446 24.9908C86.0421 25.1783 85.7971 25.4403 85.6096 25.777C85.4263 26.1136 85.3347 26.5036 85.3347 26.9467V33H83.4235ZM102.189 33.2173C101.567 33.2173 101.004 33.1023 100.501 32.8722C99.9986 32.6378 99.6001 32.299 99.3061 31.8558C99.0163 31.4126 98.8714 30.8693 98.8714 30.2259C98.8714 29.6719 98.978 29.2159 99.1911 28.858C99.4041 28.5 99.6918 28.2166 100.054 28.0078C100.416 27.799 100.821 27.6413 101.268 27.5348C101.716 27.4283 102.172 27.3473 102.636 27.2919C103.224 27.2237 103.702 27.1683 104.068 27.1257C104.435 27.0788 104.701 27.0043 104.867 26.902C105.033 26.7997 105.116 26.6335 105.116 26.4034V26.3587C105.116 25.8004 104.959 25.3679 104.643 25.0611C104.332 24.7543 103.868 24.6009 103.25 24.6009C102.607 24.6009 102.099 24.7436 101.729 25.0291C101.362 25.3104 101.109 25.6236 100.968 25.9688L99.1719 25.5597C99.3849 24.9631 99.696 24.4815 100.105 24.1151C100.518 23.7443 100.994 23.4759 101.531 23.3097C102.067 23.1392 102.632 23.054 103.224 23.054C103.616 23.054 104.032 23.1009 104.471 23.1946C104.914 23.2841 105.327 23.4503 105.711 23.6932C106.099 23.9361 106.416 24.2834 106.663 24.7351C106.911 25.1825 107.034 25.7642 107.034 26.4801V33H105.168V31.6577H105.091C104.967 31.9048 104.782 32.1477 104.535 32.3864C104.288 32.625 103.97 32.8232 103.582 32.9808C103.195 33.1385 102.73 33.2173 102.189 33.2173ZM102.604 31.6832C103.133 31.6832 103.585 31.5788 103.96 31.37C104.339 31.1612 104.626 30.8885 104.822 30.5518C105.023 30.2109 105.123 29.8466 105.123 29.4588V28.1932C105.055 28.2614 104.923 28.3253 104.727 28.3849C104.535 28.4403 104.315 28.4893 104.068 28.532C103.821 28.5703 103.58 28.6065 103.346 28.6406C103.112 28.6705 102.915 28.696 102.758 28.7173C102.387 28.7642 102.048 28.843 101.741 28.9538C101.439 29.0646 101.196 29.2244 101.013 29.4332C100.834 29.6378 100.744 29.9105 100.744 30.2514C100.744 30.7244 100.919 31.0824 101.268 31.3253C101.618 31.5639 102.063 31.6832 102.604 31.6832ZM114.343 33V23.1818H116.191V24.7415H116.293C116.472 24.2131 116.787 23.7976 117.239 23.495C117.695 23.1882 118.211 23.0348 118.786 23.0348C118.905 23.0348 119.046 23.0391 119.208 23.0476C119.374 23.0561 119.504 23.0668 119.598 23.0795V24.9077C119.521 24.8864 119.385 24.8629 119.189 24.8374C118.993 24.8075 118.797 24.7926 118.6 24.7926C118.149 24.7926 117.746 24.8885 117.392 25.0803C117.043 25.2678 116.766 25.5298 116.561 25.8665C116.357 26.1989 116.255 26.5781 116.255 27.0043V33H114.343ZM125.132 33.1982C124.164 33.1982 123.331 32.9915 122.632 32.5781C121.938 32.1605 121.401 31.5746 121.021 30.8203C120.646 30.0618 120.459 29.1733 120.459 28.1548C120.459 27.1491 120.646 26.2628 121.021 25.4957C121.401 24.7287 121.929 24.13 122.607 23.6996C123.289 23.2692 124.085 23.054 124.997 23.054C125.551 23.054 126.088 23.1456 126.608 23.3288C127.128 23.5121 127.595 23.7997 128.008 24.1918C128.421 24.5838 128.747 25.093 128.986 25.7195C129.225 26.3416 129.344 27.098 129.344 27.9886V28.6662H121.539V27.2344H127.471C127.471 26.7315 127.369 26.2862 127.164 25.8984C126.96 25.5064 126.672 25.1974 126.301 24.9716C125.935 24.7457 125.504 24.6328 125.01 24.6328C124.473 24.6328 124.004 24.7649 123.604 25.0291C123.208 25.2891 122.901 25.63 122.683 26.0518C122.47 26.4695 122.364 26.9233 122.364 27.4134V28.532C122.364 29.1882 122.479 29.7464 122.709 30.2067C122.943 30.6669 123.269 31.0185 123.687 31.2614C124.105 31.5 124.593 31.6193 125.151 31.6193C125.513 31.6193 125.843 31.5682 126.142 31.4659C126.44 31.3594 126.698 31.2017 126.915 30.9929C127.132 30.7841 127.298 30.5263 127.414 30.2195L129.222 30.5455C129.078 31.0781 128.818 31.5447 128.443 31.9453C128.072 32.3416 127.605 32.6506 127.043 32.8722C126.485 33.0895 125.847 33.1982 125.132 33.1982ZM136.137 23.1818V24.7159H130.589V23.1818H136.137ZM132.11 33V22.044C132.11 21.4304 132.244 20.9212 132.513 20.5163C132.781 20.1072 133.137 19.8026 133.58 19.6023C134.023 19.3977 134.505 19.2955 135.025 19.2955C135.408 19.2955 135.737 19.3274 136.009 19.3913C136.282 19.451 136.484 19.5064 136.616 19.5575L136.169 21.1044C136.08 21.0788 135.964 21.049 135.824 21.0149C135.683 20.9766 135.513 20.9574 135.312 20.9574C134.848 20.9574 134.516 21.0724 134.315 21.3026C134.119 21.5327 134.021 21.8651 134.021 22.2997V33H132.11ZM141.954 33.1982C140.987 33.1982 140.153 32.9915 139.455 32.5781C138.76 32.1605 138.223 31.5746 137.844 30.8203C137.469 30.0618 137.281 29.1733 137.281 28.1548C137.281 27.1491 137.469 26.2628 137.844 25.4957C138.223 24.7287 138.751 24.13 139.429 23.6996C140.111 23.2692 140.908 23.054 141.82 23.054C142.374 23.054 142.911 23.1456 143.43 23.3288C143.95 23.5121 144.417 23.7997 144.83 24.1918C145.244 24.5838 145.57 25.093 145.808 25.7195C146.047 26.3416 146.166 27.098 146.166 27.9886V28.6662H138.362V27.2344H144.293C144.293 26.7315 144.191 26.2862 143.987 25.8984C143.782 25.5064 143.494 25.1974 143.124 24.9716C142.757 24.7457 142.327 24.6328 141.832 24.6328C141.295 24.6328 140.827 24.7649 140.426 25.0291C140.03 25.2891 139.723 25.63 139.506 26.0518C139.293 26.4695 139.186 26.9233 139.186 27.4134V28.532C139.186 29.1882 139.301 29.7464 139.531 30.2067C139.766 30.6669 140.092 31.0185 140.509 31.2614C140.927 31.5 141.415 31.6193 141.973 31.6193C142.335 31.6193 142.665 31.5682 142.964 31.4659C143.262 31.3594 143.52 31.2017 143.737 30.9929C143.955 30.7841 144.121 30.5263 144.236 30.2195L146.045 30.5455C145.9 31.0781 145.64 31.5447 145.265 31.9453C144.894 32.3416 144.428 32.6506 143.865 32.8722C143.307 33.0895 142.67 33.1982 141.954 33.1982ZM148.287 33V23.1818H150.134V24.7415H150.236C150.415 24.2131 150.731 23.7976 151.182 23.495C151.638 23.1882 152.154 23.0348 152.729 23.0348C152.849 23.0348 152.989 23.0391 153.151 23.0476C153.317 23.0561 153.447 23.0668 153.541 23.0795V24.9077C153.464 24.8864 153.328 24.8629 153.132 24.8374C152.936 24.8075 152.74 24.7926 152.544 24.7926C152.092 24.7926 151.689 24.8885 151.336 25.0803C150.986 25.2678 150.709 25.5298 150.505 25.8665C150.3 26.1989 150.198 26.5781 150.198 27.0043V33H148.287ZM159.075 33.1982C158.108 33.1982 157.275 32.9915 156.576 32.5781C155.881 32.1605 155.344 31.5746 154.965 30.8203C154.59 30.0618 154.402 29.1733 154.402 28.1548C154.402 27.1491 154.59 26.2628 154.965 25.4957C155.344 24.7287 155.873 24.13 156.55 23.6996C157.232 23.2692 158.029 23.054 158.941 23.054C159.495 23.054 160.032 23.1456 160.551 23.3288C161.071 23.5121 161.538 23.7997 161.951 24.1918C162.365 24.5838 162.691 25.093 162.929 25.7195C163.168 26.3416 163.287 27.098 163.287 27.9886V28.6662H155.483V27.2344H161.414C161.414 26.7315 161.312 26.2862 161.108 25.8984C160.903 25.5064 160.615 25.1974 160.245 24.9716C159.878 24.7457 159.448 24.6328 158.953 24.6328C158.417 24.6328 157.948 24.7649 157.547 25.0291C157.151 25.2891 156.844 25.63 156.627 26.0518C156.414 26.4695 156.307 26.9233 156.307 27.4134V28.532C156.307 29.1882 156.422 29.7464 156.652 30.2067C156.887 30.6669 157.213 31.0185 157.63 31.2614C158.048 31.5 158.536 31.6193 159.094 31.6193C159.456 31.6193 159.787 31.5682 160.085 31.4659C160.383 31.3594 160.641 31.2017 160.858 30.9929C161.076 30.7841 161.242 30.5263 161.357 30.2195L163.166 30.5455C163.021 31.0781 162.761 31.5447 162.386 31.9453C162.015 32.3416 161.549 32.6506 160.986 32.8722C160.428 33.0895 159.791 33.1982 159.075 33.1982ZM167.319 27.1705V33H165.408V23.1818H167.242V24.7798H167.364C167.59 24.2599 167.943 23.8423 168.425 23.527C168.911 23.2116 169.522 23.054 170.259 23.054C170.928 23.054 171.514 23.1946 172.017 23.4759C172.52 23.7528 172.91 24.1662 173.187 24.7159C173.464 25.2656 173.602 25.9453 173.602 26.755V33H171.691V26.9851C171.691 26.2734 171.506 25.7173 171.135 25.3168C170.764 24.9119 170.255 24.7095 169.607 24.7095C169.164 24.7095 168.77 24.8054 168.425 24.9972C168.084 25.1889 167.813 25.4702 167.613 25.8409C167.417 26.2074 167.319 26.6506 167.319 27.1705ZM180.301 33.1982C179.351 33.1982 178.533 32.983 177.847 32.5526C177.165 32.1179 176.641 31.5192 176.274 30.7564C175.908 29.9936 175.725 29.12 175.725 28.1357C175.725 27.1385 175.912 26.2585 176.287 25.4957C176.662 24.7287 177.191 24.13 177.872 23.6996C178.554 23.2692 179.357 23.054 180.282 23.054C181.028 23.054 181.693 23.1925 182.276 23.4695C182.86 23.7422 183.331 24.1257 183.689 24.62C184.051 25.1143 184.267 25.6918 184.335 26.3523H182.475C182.372 25.892 182.138 25.4957 181.771 25.1634C181.409 24.831 180.923 24.6648 180.314 24.6648C179.781 24.6648 179.315 24.8054 178.914 25.0866C178.518 25.3636 178.209 25.7599 177.987 26.2756C177.766 26.7869 177.655 27.392 177.655 28.0909C177.655 28.8068 177.764 29.4247 177.981 29.9446C178.198 30.4645 178.505 30.8672 178.901 31.1527C179.302 31.4382 179.773 31.581 180.314 31.581C180.676 31.581 181.004 31.5149 181.298 31.3828C181.597 31.2464 181.846 31.0526 182.046 30.8011C182.251 30.5497 182.394 30.2472 182.475 29.8935H184.335C184.267 30.5284 184.06 31.0952 183.715 31.5938C183.369 32.0923 182.907 32.4844 182.328 32.7699C181.752 33.0554 181.077 33.1982 180.301 33.1982ZM190.61 33.1982C189.643 33.1982 188.81 32.9915 188.111 32.5781C187.416 32.1605 186.879 31.5746 186.5 30.8203C186.125 30.0618 185.938 29.1733 185.938 28.1548C185.938 27.1491 186.125 26.2628 186.5 25.4957C186.879 24.7287 187.408 24.13 188.085 23.6996C188.767 23.2692 189.564 23.054 190.476 23.054C191.03 23.054 191.567 23.1456 192.087 23.3288C192.607 23.5121 193.073 23.7997 193.487 24.1918C193.9 24.5838 194.226 25.093 194.464 25.7195C194.703 26.3416 194.822 27.098 194.822 27.9886V28.6662H187.018V27.2344H192.95C192.95 26.7315 192.847 26.2862 192.643 25.8984C192.438 25.5064 192.151 25.1974 191.78 24.9716C191.413 24.7457 190.983 24.6328 190.489 24.6328C189.952 24.6328 189.483 24.7649 189.082 25.0291C188.686 25.2891 188.379 25.63 188.162 26.0518C187.949 26.4695 187.842 26.9233 187.842 27.4134V28.532C187.842 29.1882 187.957 29.7464 188.188 30.2067C188.422 30.6669 188.748 31.0185 189.165 31.2614C189.583 31.5 190.071 31.6193 190.629 31.6193C190.991 31.6193 191.322 31.5682 191.62 31.4659C191.918 31.3594 192.176 31.2017 192.393 30.9929C192.611 30.7841 192.777 30.5263 192.892 30.2195L194.701 30.5455C194.556 31.0781 194.296 31.5447 193.921 31.9453C193.55 32.3416 193.084 32.6506 192.521 32.8722C191.963 33.0895 191.326 33.1982 190.61 33.1982Z" fill="#3D3D3B"/>
</svg>
