<svg width="245" height="52" viewBox="0 0 245 52" fill="none" xmlns="http://www.w3.org/2000/svg">
<rect x="0.5" y="0.5" width="244" height="51" rx="25.5" fill="#FAFAF8"/>
<rect x="0.5" y="0.5" width="244" height="51" rx="25.5" stroke="#3D3D3B"/>
<path d="M34 16V24L37 21L40 24V16M28 33.5V18.5C28 17.837 28.2634 17.2011 28.7322 16.7322C29.2011 16.2634 29.837 16 30.5 16H43C43.2652 16 43.5196 16.1054 43.7071 16.2929C43.8946 16.4804 44 16.7348 44 17V35C44 35.2652 43.8946 35.5196 43.7071 35.7071C43.5196 35.8946 43.2652 36 43 36H30.5C29.837 36 29.2011 35.7366 28.7322 35.2678C28.2634 34.7989 28 34.163 28 33.5ZM28 33.5C28 32.837 28.2634 32.2011 28.7322 31.7322C29.2011 31.2634 29.837 31 30.5 31H44" stroke="#3D3D3B" stroke-width="2" stroke-linecap="round" stroke-linejoin="round"/>
<path d="M57.4382 33V19.9091H65.5561V21.6094H59.4134V25.598H64.9744V27.2919H59.4134V33H57.4382ZM73.4359 28.9283V23.1818H75.3535V33H73.4743V31.2997H73.372C73.1461 31.8239 72.7839 32.2607 72.2853 32.6101C71.791 32.9553 71.1752 33.1278 70.438 33.1278C69.8074 33.1278 69.2491 32.9893 68.7633 32.7124C68.2818 32.4311 67.9025 32.0156 67.6255 31.4659C67.3528 30.9162 67.2164 30.2365 67.2164 29.4268V23.1818H69.1277V29.1967C69.1277 29.8658 69.313 30.3984 69.6838 30.7947C70.0545 31.1911 70.536 31.3892 71.1284 31.3892C71.4863 31.3892 71.8422 31.2997 72.1958 31.1207C72.5538 30.9418 72.85 30.6712 73.0843 30.3089C73.323 29.9467 73.4402 29.4865 73.4359 28.9283ZM79.8327 19.9091V33H77.9215V19.9091H79.8327ZM84.3152 19.9091V33H82.4039V19.9091H84.3152ZM95.3255 33.1918C94.5328 33.1918 93.8255 32.9893 93.2033 32.5845C92.5854 32.1754 92.0996 31.5937 91.7459 30.8395C91.3965 30.081 91.2218 29.1712 91.2218 28.1101C91.2218 27.049 91.3986 26.1413 91.7523 25.3871C92.1103 24.6328 92.6003 24.0554 93.2225 23.6548C93.8446 23.2543 94.5499 23.054 95.3382 23.054C95.9476 23.054 96.4377 23.1562 96.8084 23.3608C97.1834 23.5611 97.4732 23.7955 97.6777 24.0639C97.8865 24.3324 98.0485 24.5689 98.1635 24.7734H98.2786V19.9091H100.19V33H98.3233V31.4723H98.1635C98.0485 31.6811 97.8823 31.9197 97.665 32.1882C97.4519 32.4567 97.1578 32.6911 96.7828 32.8913C96.4078 33.0916 95.9221 33.1918 95.3255 33.1918ZM95.7473 31.5618C96.2971 31.5618 96.7615 31.4169 97.1408 31.1271C97.5243 30.8331 97.8141 30.4261 98.0101 29.9062C98.2104 29.3864 98.3105 28.7812 98.3105 28.0909C98.3105 27.4091 98.2125 26.8125 98.0165 26.3011C97.8205 25.7898 97.5328 25.3913 97.1536 25.1058C96.7743 24.8203 96.3056 24.6776 95.7473 24.6776C95.1721 24.6776 94.6926 24.8267 94.3091 25.125C93.9256 25.4233 93.6358 25.8303 93.4398 26.3459C93.248 26.8615 93.1522 27.4432 93.1522 28.0909C93.1522 28.7472 93.2502 29.3374 93.4462 29.8615C93.6422 30.3857 93.932 30.8011 94.3155 31.108C94.7033 31.4105 95.1806 31.5618 95.7473 31.5618ZM107.053 33.1982C106.133 33.1982 105.33 32.9872 104.643 32.5653C103.957 32.1435 103.425 31.5533 103.045 30.7947C102.666 30.0362 102.477 29.1499 102.477 28.1357C102.477 27.1172 102.666 26.2266 103.045 25.4638C103.425 24.701 103.957 24.1087 104.643 23.6868C105.33 23.2649 106.133 23.054 107.053 23.054C107.974 23.054 108.777 23.2649 109.463 23.6868C110.149 24.1087 110.682 24.701 111.061 25.4638C111.44 26.2266 111.63 27.1172 111.63 28.1357C111.63 29.1499 111.44 30.0362 111.061 30.7947C110.682 31.5533 110.149 32.1435 109.463 32.5653C108.777 32.9872 107.974 33.1982 107.053 33.1982ZM107.06 31.5938C107.656 31.5938 108.151 31.4361 108.543 31.1207C108.935 30.8054 109.224 30.3857 109.412 29.8615C109.604 29.3374 109.7 28.7599 109.7 28.1293C109.7 27.5028 109.604 26.9276 109.412 26.4034C109.224 25.875 108.935 25.451 108.543 25.1314C108.151 24.8118 107.656 24.652 107.06 24.652C106.459 24.652 105.96 24.8118 105.564 25.1314C105.172 25.451 104.88 25.875 104.688 26.4034C104.501 26.9276 104.407 27.5028 104.407 28.1293C104.407 28.7599 104.501 29.3374 104.688 29.8615C104.88 30.3857 105.172 30.8054 105.564 31.1207C105.96 31.4361 106.459 31.5938 107.06 31.5938ZM117.899 33.1982C116.949 33.1982 116.131 32.983 115.444 32.5526C114.763 32.1179 114.238 31.5192 113.872 30.7564C113.506 29.9936 113.322 29.12 113.322 28.1357C113.322 27.1385 113.51 26.2585 113.885 25.4957C114.26 24.7287 114.788 24.13 115.47 23.6996C116.152 23.2692 116.955 23.054 117.88 23.054C118.626 23.054 119.29 23.1925 119.874 23.4695C120.458 23.7422 120.929 24.1257 121.287 24.62C121.649 25.1143 121.864 25.6918 121.932 26.3523H120.072C119.97 25.892 119.736 25.4957 119.369 25.1634C119.007 24.831 118.521 24.6648 117.912 24.6648C117.379 24.6648 116.912 24.8054 116.512 25.0866C116.116 25.3636 115.807 25.7599 115.585 26.2756C115.363 26.7869 115.253 27.392 115.253 28.0909C115.253 28.8068 115.361 29.4247 115.579 29.9446C115.796 30.4645 116.103 30.8672 116.499 31.1527C116.9 31.4382 117.371 31.581 117.912 31.581C118.274 31.581 118.602 31.5149 118.896 31.3828C119.194 31.2464 119.444 31.0526 119.644 30.8011C119.849 30.5497 119.991 30.2472 120.072 29.8935H121.932C121.864 30.5284 121.657 31.0952 121.312 31.5938C120.967 32.0923 120.505 32.4844 119.925 32.7699C119.35 33.0554 118.675 33.1982 117.899 33.1982ZM130.196 28.9283V23.1818H132.113V33H130.234V31.2997H130.132C129.906 31.8239 129.544 32.2607 129.045 32.6101C128.551 32.9553 127.935 33.1278 127.198 33.1278C126.567 33.1278 126.009 32.9893 125.523 32.7124C125.042 32.4311 124.662 32.0156 124.385 31.4659C124.113 30.9162 123.976 30.2365 123.976 29.4268V23.1818H125.887V29.1967C125.887 29.8658 126.073 30.3984 126.444 30.7947C126.814 31.1911 127.296 31.3892 127.888 31.3892C128.246 31.3892 128.602 31.2997 128.956 31.1207C129.314 30.9418 129.61 30.6712 129.844 30.3089C130.083 29.9467 130.2 29.4865 130.196 28.9283ZM134.681 33V23.1818H136.516V24.7798H136.637C136.842 24.2386 137.176 23.8168 137.641 23.5142C138.105 23.2074 138.661 23.054 139.309 23.054C139.965 23.054 140.515 23.2074 140.958 23.5142C141.406 23.821 141.736 24.2429 141.949 24.7798H142.051C142.286 24.2557 142.659 23.8381 143.17 23.527C143.681 23.2116 144.291 23.054 144.998 23.054C145.889 23.054 146.615 23.3331 147.178 23.8913C147.744 24.4496 148.028 25.2912 148.028 26.4162V33H146.117V26.5952C146.117 25.9304 145.936 25.4489 145.573 25.1506C145.211 24.8523 144.779 24.7031 144.276 24.7031C143.654 24.7031 143.17 24.8949 142.825 25.2784C142.48 25.6577 142.307 26.1456 142.307 26.7422V33H140.402V26.4737C140.402 25.9411 140.236 25.5128 139.904 25.1889C139.571 24.8651 139.139 24.7031 138.606 24.7031C138.244 24.7031 137.909 24.799 137.602 24.9908C137.3 25.1783 137.055 25.4403 136.867 25.777C136.684 26.1136 136.593 26.5036 136.593 26.9467V33H134.681ZM154.821 33.1982C153.854 33.1982 153.021 32.9915 152.322 32.5781C151.627 32.1605 151.09 31.5746 150.711 30.8203C150.336 30.0618 150.148 29.1733 150.148 28.1548C150.148 27.1491 150.336 26.2628 150.711 25.4957C151.09 24.7287 151.619 24.13 152.296 23.6996C152.978 23.2692 153.775 23.054 154.687 23.054C155.241 23.054 155.778 23.1456 156.298 23.3288C156.817 23.5121 157.284 23.7997 157.697 24.1918C158.111 24.5838 158.437 25.093 158.675 25.7195C158.914 26.3416 159.033 27.098 159.033 27.9886V28.6662H151.229V27.2344H157.161C157.161 26.7315 157.058 26.2862 156.854 25.8984C156.649 25.5064 156.362 25.1974 155.991 24.9716C155.624 24.7457 155.194 24.6328 154.7 24.6328C154.163 24.6328 153.694 24.7649 153.293 25.0291C152.897 25.2891 152.59 25.63 152.373 26.0518C152.16 26.4695 152.053 26.9233 152.053 27.4134V28.532C152.053 29.1882 152.168 29.7464 152.398 30.2067C152.633 30.6669 152.959 31.0185 153.376 31.2614C153.794 31.5 154.282 31.6193 154.84 31.6193C155.202 31.6193 155.533 31.5682 155.831 31.4659C156.129 31.3594 156.387 31.2017 156.604 30.9929C156.822 30.7841 156.988 30.5263 157.103 30.2195L158.912 30.5455C158.767 31.0781 158.507 31.5447 158.132 31.9453C157.761 32.3416 157.295 32.6506 156.732 32.8722C156.174 33.0895 155.537 33.1982 154.821 33.1982ZM163.065 27.1705V33H161.154V23.1818H162.988V24.7798H163.11C163.336 24.2599 163.689 23.8423 164.171 23.527C164.657 23.2116 165.268 23.054 166.006 23.054C166.675 23.054 167.26 23.1946 167.763 23.4759C168.266 23.7528 168.656 24.1662 168.933 24.7159C169.21 25.2656 169.349 25.9453 169.349 26.755V33H167.437V26.9851C167.437 26.2734 167.252 25.7173 166.881 25.3168C166.51 24.9119 166.001 24.7095 165.354 24.7095C164.91 24.7095 164.516 24.8054 164.171 24.9972C163.83 25.1889 163.559 25.4702 163.359 25.8409C163.163 26.2074 163.065 26.6506 163.065 27.1705ZM176.495 23.1818V24.7159H171.132V23.1818H176.495ZM172.57 20.8295H174.481V30.1172C174.481 30.4879 174.537 30.767 174.648 30.9545C174.758 31.1378 174.901 31.2635 175.076 31.3317C175.255 31.3956 175.449 31.4276 175.657 31.4276C175.811 31.4276 175.945 31.4169 176.06 31.3956C176.175 31.3743 176.265 31.3572 176.329 31.3445L176.674 32.9233C176.563 32.9659 176.405 33.0085 176.201 33.0511C175.996 33.098 175.741 33.1236 175.434 33.1278C174.931 33.1364 174.462 33.0469 174.028 32.8594C173.593 32.6719 173.241 32.3821 172.973 31.9901C172.704 31.598 172.57 31.1058 172.57 30.5135V20.8295ZM181.466 33.2173C180.844 33.2173 180.282 33.1023 179.779 32.8722C179.276 32.6378 178.877 32.299 178.583 31.8558C178.294 31.4126 178.149 30.8693 178.149 30.2259C178.149 29.6719 178.255 29.2159 178.468 28.858C178.681 28.5 178.969 28.2166 179.331 28.0078C179.694 27.799 180.098 27.6413 180.546 27.5348C180.993 27.4283 181.449 27.3473 181.914 27.2919C182.502 27.2237 182.979 27.1683 183.346 27.1257C183.712 27.0788 183.978 27.0043 184.145 26.902C184.311 26.7997 184.394 26.6335 184.394 26.4034V26.3587C184.394 25.8004 184.236 25.3679 183.921 25.0611C183.61 24.7543 183.145 24.6009 182.527 24.6009C181.884 24.6009 181.377 24.7436 181.006 25.0291C180.64 25.3104 180.386 25.6236 180.245 25.9688L178.449 25.5597C178.662 24.9631 178.973 24.4815 179.382 24.1151C179.796 23.7443 180.271 23.4759 180.808 23.3097C181.345 23.1392 181.909 23.054 182.502 23.054C182.894 23.054 183.309 23.1009 183.748 23.1946C184.191 23.2841 184.605 23.4503 184.988 23.6932C185.376 23.9361 185.694 24.2834 185.941 24.7351C186.188 25.1825 186.311 25.7642 186.311 26.4801V33H184.445V31.6577H184.368C184.245 31.9048 184.059 32.1477 183.812 32.3864C183.565 32.625 183.248 32.8232 182.86 32.9808C182.472 33.1385 182.007 33.2173 181.466 33.2173ZM181.882 31.6832C182.41 31.6832 182.862 31.5788 183.237 31.37C183.616 31.1612 183.904 30.8885 184.1 30.5518C184.3 30.2109 184.4 29.8466 184.4 29.4588V28.1932C184.332 28.2614 184.2 28.3253 184.004 28.3849C183.812 28.4403 183.593 28.4893 183.346 28.532C183.098 28.5703 182.858 28.6065 182.623 28.6406C182.389 28.6705 182.193 28.696 182.035 28.7173C181.664 28.7642 181.326 28.843 181.019 28.9538C180.716 29.0646 180.473 29.2244 180.29 29.4332C180.111 29.6378 180.022 29.9105 180.022 30.2514C180.022 30.7244 180.196 31.0824 180.546 31.3253C180.895 31.5639 181.341 31.6832 181.882 31.6832ZM193.44 23.1818V24.7159H188.077V23.1818H193.44ZM189.515 20.8295H191.427V30.1172C191.427 30.4879 191.482 30.767 191.593 30.9545C191.704 31.1378 191.846 31.2635 192.021 31.3317C192.2 31.3956 192.394 31.4276 192.603 31.4276C192.756 31.4276 192.89 31.4169 193.006 31.3956C193.121 31.3743 193.21 31.3572 193.274 31.3445L193.619 32.9233C193.508 32.9659 193.351 33.0085 193.146 33.0511C192.942 33.098 192.686 33.1236 192.379 33.1278C191.876 33.1364 191.407 33.0469 190.973 32.8594C190.538 32.6719 190.187 32.3821 189.918 31.9901C189.65 31.598 189.515 31.1058 189.515 30.5135V20.8295ZM195.554 33V23.1818H197.466V33H195.554ZM196.52 21.6669C196.187 21.6669 195.902 21.5561 195.663 21.3345C195.429 21.1087 195.311 20.8402 195.311 20.5291C195.311 20.2138 195.429 19.9453 195.663 19.7237C195.902 19.4979 196.187 19.3849 196.52 19.3849C196.852 19.3849 197.135 19.4979 197.37 19.7237C197.608 19.9453 197.728 20.2138 197.728 20.5291C197.728 20.8402 197.608 21.1087 197.37 21.3345C197.135 21.5561 196.852 21.6669 196.52 21.6669ZM204.172 33.1982C203.252 33.1982 202.449 32.9872 201.763 32.5653C201.077 32.1435 200.544 31.5533 200.165 30.7947C199.785 30.0362 199.596 29.1499 199.596 28.1357C199.596 27.1172 199.785 26.2266 200.165 25.4638C200.544 24.701 201.077 24.1087 201.763 23.6868C202.449 23.2649 203.252 23.054 204.172 23.054C205.093 23.054 205.896 23.2649 206.582 23.6868C207.268 24.1087 207.801 24.701 208.18 25.4638C208.559 26.2266 208.749 27.1172 208.749 28.1357C208.749 29.1499 208.559 30.0362 208.18 30.7947C207.801 31.5533 207.268 32.1435 206.582 32.5653C205.896 32.9872 205.093 33.1982 204.172 33.1982ZM204.179 31.5938C204.775 31.5938 205.27 31.4361 205.662 31.1207C206.054 30.8054 206.344 30.3857 206.531 29.8615C206.723 29.3374 206.819 28.7599 206.819 28.1293C206.819 27.5028 206.723 26.9276 206.531 26.4034C206.344 25.875 206.054 25.451 205.662 25.1314C205.27 24.8118 204.775 24.652 204.179 24.652C203.578 24.652 203.079 24.8118 202.683 25.1314C202.291 25.451 201.999 25.875 201.807 26.4034C201.62 26.9276 201.526 27.5028 201.526 28.1293C201.526 28.7599 201.62 29.3374 201.807 29.8615C201.999 30.3857 202.291 30.8054 202.683 31.1207C203.079 31.4361 203.578 31.5938 204.179 31.5938ZM212.794 27.1705V33H210.882V23.1818H212.717V24.7798H212.838C213.064 24.2599 213.418 23.8423 213.9 23.527C214.385 23.2116 214.997 23.054 215.734 23.054C216.403 23.054 216.989 23.1946 217.492 23.4759C217.995 23.7528 218.385 24.1662 218.662 24.7159C218.939 25.2656 219.077 25.9453 219.077 26.755V33H217.166V26.9851C217.166 26.2734 216.98 25.7173 216.61 25.3168C216.239 24.9119 215.73 24.7095 215.082 24.7095C214.639 24.7095 214.245 24.8054 213.9 24.9972C213.559 25.1889 213.288 25.4702 213.088 25.8409C212.892 26.2074 212.794 26.6506 212.794 27.1705Z" fill="#3D3D3B"/>
</svg>
